
        <svg xmlns="http://www.w3.org/2000/svg" xmlns:xlink="http://www.w3.org/1999/xlink" version="1.1" width="3300" height="2705.0146423943092" viewBox="0 0 3300 2705.0146423943092">
			
			<g transform="scale(15) translate(10, 10)">
				<defs id="SvgjsDefs1480"/><g id="SvgjsG1481" featureKey="symbolFeature-0" transform="matrix(1.1569252930885647,0,0,1.1569252930885647,47.93836181101459,-2.061638188985413)" fill="#fff"><g xmlns="http://www.w3.org/2000/svg"><circle cx="45" cy="44.999" r="5.277"/><g><g><path d="M45.214,33.672c24.117-31.271,0.369-31.89,0.369-31.89S21.827,1.851,45.214,33.672z"/></g><g><path d="M37.141,36.837c-5.059-39.164-22.288-22.81-22.288-22.81S-1.896,30.874,37.141,36.837z"/></g><g><path d="M33.67,44.786c-31.269-24.119-31.888-0.37-31.888-0.37S1.851,68.173,33.67,44.786z"/></g><g><path d="M36.837,52.859c-39.166,5.059-22.81,22.288-22.81,22.288S30.874,91.899,36.837,52.859z"/></g><g><path d="M44.785,56.33c-24.118,31.271-0.369,31.888-0.369,31.888S68.171,88.149,44.785,56.33z"/></g><g><path d="M52.859,53.164c5.057,39.164,22.287,22.81,22.287,22.81S91.896,59.127,52.859,53.164z"/></g><g><path d="M56.33,45.216c31.271,24.117,31.888,0.369,31.888,0.369S88.148,21.829,56.33,45.216z"/></g><g><path d="M53.162,37.142c39.166-5.061,22.811-22.289,22.811-22.289S59.126-1.896,53.162,37.142z"/></g></g></g></g><g id="SvgjsG1482" featureKey="fiAKjI-0" transform="matrix(1.5959145600294948,0,0,1.5959145600294948,-1.3405677129506484,110.36067687929253)" fill="#fff"><path d="M0.84 20 l0 -13.7 l5.64 0 c3.06 0 4.42 1.7 4.42 3.72 c0 1.22 -0.58 2.2 -1.72 2.78 c1.72 0.52 2.64 1.68 2.64 3.28 c0 2.24 -1.58 3.92 -4.82 3.92 l-6.16 0 z M6.26 8.96 l-2.32 0 l0 2.8 l2.32 0 c1.06 0 1.6 -0.6 1.6 -1.42 c0 -0.8 -0.54 -1.38 -1.6 -1.38 z M6.82 14.379999999999999 l-2.88 0 l0 2.96 l2.9 0 c1.2 0 1.88 -0.6 1.88 -1.44 c0 -0.9 -0.68 -1.52 -1.9 -1.52 z M20.78 14.9 l-1.78 -5.36 l-1.78 5.36 l3.56 0 z M22.48 20 l-0.78 -2.36 l-5.38 0 l-0.78 2.36 l-3.18 0 l4.84 -13.7 l3.8 0 l4.82 13.7 l-3.34 0 z M32.160000000000004 9.14 l-2.28 0 l0 3.66 l2.18 0 c1.34 0 2.16 -0.76 2.16 -1.82 s-0.68 -1.84 -2.06 -1.84 z M29.880000000000003 15.34 l0 4.66 l-3.1 0 l0 -13.7 l5.84 0 c2.92 0 4.72 1.88 4.72 4.56 c0 2.14 -1.42 3.92 -3.74 4.38 l4.36 4.76 l-4.04 0 z M39.080000000000005 20 l0 -13.7 l5.6 0 c4.22 0 6.98 3 6.98 6.78 c0 3.86 -2.88 6.92 -7.14 6.92 l-5.44 0 z M44.52 9.14 l-2.34 0 l0 8.02 l2.44 0 c2.22 0 3.92 -1.72 3.92 -4.04 c0 -2.28 -1.7 -3.98 -4.02 -3.98 z M56.12 20 l-3.1 0 l0 -13.7 l3.1 0 l0 13.7 z M65.47999999999999 14.9 l-1.78 -5.36 l-1.78 5.36 l3.56 0 z M67.17999999999999 20 l-0.78 -2.36 l-5.38 0 l-0.78 2.36 l-3.18 0 l4.84 -13.7 l3.8 0 l4.82 13.7 l-3.34 0 z M79.98 20 l-5.52 -8.68 l0 8.68 l-2.98 0 l0 -13.7 l3.38 0 l5.52 8.7 l0 -8.7 l2.98 0 l0 13.7 l-3.38 0 z M85.04 20 l0 -13.7 l10.02 0 l0 2.8 l-6.92 0 l0 2.58 l6.4 0 l0 2.72 l-6.4 0 l0 2.8 l6.94 0 l0 2.8 l-10.04 0 z M107.58000000000001 20 l-2.4 -8.46 l-2.36 8.46 l-3.68 0 l-3.34 -13.7 l3.26 0 l2.1 9.84 l2.74 -9.84 l2.74 0 l2.72 9.94 l2.18 -9.94 l3.08 0 l-3.34 13.7 l-3.7 0 z M120.62 20.26 c-3.46 0 -5.36 -1.72 -5.54 -4.54 l3.1 0 c0.06 1.04 0.66 2.08 2.52 2.08 c1.56 0 2.36 -0.62 2.36 -1.48 c0 -1.06 -1.34 -1.34 -2.9 -1.68 c-2.18 -0.52 -4.84 -1.16 -4.84 -4.42 c0 -2.4 1.86 -4.18 5.14 -4.18 c3.34 0 5.18 1.82 5.38 4.5 l-3.12 0 c-0.06 -1.1 -0.66 -1.98 -2.34 -1.98 c-1.24 0 -2.06 0.5 -2.06 1.4 c0 1.16 1.36 1.48 2.92 1.84 c2.24 0.5 4.92 1.06 4.92 4.14 c0 2.5 -1.96 4.32 -5.54 4.32 z"/></g><g id="SvgjsG1483" featureKey="sloganFeature-0" transform="matrix(0.5093270278829658,0,0,0.5093270278829658,19.53141912584736,150.04590314113238)" fill="#fff"><path d="M0.92 18.54 c0.88 0.82 2.7 1.66 4.52 1.66 c2.8 0 4.58 -1.44 4.58 -3.7 c0 -1.84 -0.88 -2.92 -3.92 -4.64 c-2.32 -1.34 -2.88 -1.78 -2.88 -2.66 c0 -0.94 0.88 -1.68 2.36 -1.68 c0.86 0 2 0.38 2.66 0.8 l0.96 -1.44 c-0.94 -0.62 -2.42 -1.08 -3.6 -1.08 c-2.58 0 -4.3 1.48 -4.3 3.42 c0 1.72 0.86 2.58 3.5 4.02 c2.34 1.28 3.3 2.22 3.3 3.24 c0 1.2 -1.04 1.92 -2.66 1.92 c-1.4 0 -2.8 -0.66 -3.5 -1.3 z M24.717 6 l1.8 0 l0 14 l-1.8 0 l0 -6.44 l-6.94 0 l0 6.44 l-1.8 0 l0 -14 l1.8 0 l0 5.84 l6.94 0 l0 -5.84 z M42.454 20 l-1.22 -2.84 l-6.24 0 l-1.22 2.84 l-1.92 0 l6.16 -14.2 l0.2 0 l6.16 14.2 l-1.92 0 z M35.714 15.48 l4.8 0 l-2.4 -5.54 z M63.111000000000004 5.800000000000001 l0.22 0 l0 14.2 l-1.78 0 l0 -9.42 l-4.96 6.48 l-0.12 0 l-4.96 -6.46 l0 9.4 l-1.78 0 l0 -14.2 l0.2 0 l6.6 8.4 z M69.28800000000001 18.54 c0.88 0.82 2.7 1.66 4.52 1.66 c2.8 0 4.58 -1.44 4.58 -3.7 c0 -1.84 -0.88 -2.92 -3.92 -4.64 c-2.32 -1.34 -2.88 -1.78 -2.88 -2.66 c0 -0.94 0.88 -1.68 2.36 -1.68 c0.86 0 2 0.38 2.66 0.8 l0.96 -1.44 c-0.94 -0.62 -2.42 -1.08 -3.6 -1.08 c-2.58 0 -4.3 1.48 -4.3 3.42 c0 1.72 0.86 2.58 3.5 4.02 c2.34 1.28 3.3 2.22 3.3 3.24 c0 1.2 -1.04 1.92 -2.66 1.92 c-1.4 0 -2.8 -0.66 -3.5 -1.3 z M84.34500000000001 20 l0 -14 l1.8 0 l0 14 l-1.8 0 z M98.18200000000002 6 c3.28 0 4.82 2.48 4.82 5.1 s-1.54 5.1 -4.82 5.1 l-3.5 0 l0 3.8 l-1.8 0 l0 -14 l5.3 0 z M98.10200000000002 14.48 c1.84 0 3.06 -1.42 3.06 -3.38 s-1.22 -3.38 -3.06 -3.38 l-3.42 0 l0 6.76 l3.42 0 z M115.799 20.2 c-4 0 -7.18 -3.2 -7.18 -7.2 s3.18 -7.2 7.18 -7.2 s7.18 3.2 7.18 7.2 s-3.18 7.2 -7.18 7.2 z M115.799 18.48 c3.04 0 5.32 -2.38 5.32 -5.48 s-2.28 -5.48 -5.32 -5.48 c-3.06 0 -5.34 2.38 -5.34 5.48 s2.28 5.48 5.34 5.48 z M135.79600000000002 20.2 c-4 0 -7.18 -3.2 -7.18 -7.2 s3.18 -7.2 7.18 -7.2 s7.18 3.2 7.18 7.2 s-3.18 7.2 -7.18 7.2 z M135.79600000000002 18.48 c3.04 0 5.32 -2.38 5.32 -5.48 s-2.28 -5.48 -5.32 -5.48 c-3.06 0 -5.34 2.38 -5.34 5.48 s2.28 5.48 5.34 5.48 z M159.353 11.06 c0 2.26 -1.06 4.2 -3.24 4.84 l3.02 4.1 l-2.16 0 l-2.86 -3.88 l-3.14 0 l0 3.88 l-1.8 0 l0 -14 l5.28 0 c3.3 0 4.9 2.28 4.9 5.06 z M150.973 7.68 l0 6.74 l3.4 0 c2.26 0 3.18 -1.66 3.18 -3.36 s-0.92 -3.38 -3.18 -3.38 l-3.4 0 z M175.54700000000003 14.46 l0 -8.46 l1.8 0 l0 8.32 c0 2.7 1.56 4.08 3.76 4.08 s3.78 -1.38 3.78 -4.08 l0 -8.32 l1.78 0 l0 8.46 c0 3.64 -2.08 5.74 -5.56 5.74 c-3.46 0 -5.56 -2.1 -5.56 -5.74 z M202.88400000000004 6 l1.8 0 l0 14.2 l-0.22 0 l-9.4 -9.98 l0 9.78 l-1.78 0 l0 -14.2 l0.2 0 l9.4 9.98 l0 -9.78 z M211.42100000000002 20 l0 -14 l1.8 0 l0 14 l-1.8 0 z M218.75800000000004 6 l1.96 0 l4.24 10.24 l4.26 -10.24 l1.96 0 l-6.1 14.2 l-0.22 0 z M245.13500000000002 18.28 l0.12 1.72 l-8.52 0 l0 -14 l8.12 0 l0.14 1.72 l-6.46 0 l0 3.42 l4.38 0 l0 1.72 l-4.38 0 l0 5.42 l6.6 0 z M261.39200000000005 11.06 c0 2.26 -1.06 4.2 -3.24 4.84 l3.02 4.1 l-2.16 0 l-2.86 -3.88 l-3.14 0 l0 3.88 l-1.8 0 l0 -14 l5.28 0 c3.3 0 4.9 2.28 4.9 5.06 z M253.01200000000003 7.68 l0 6.74 l3.4 0 c2.26 0 3.18 -1.66 3.18 -3.36 s-0.92 -3.38 -3.18 -3.38 l-3.4 0 z M266.749 18.54 c0.88 0.82 2.7 1.66 4.52 1.66 c2.8 0 4.58 -1.44 4.58 -3.7 c0 -1.84 -0.88 -2.92 -3.92 -4.64 c-2.32 -1.34 -2.88 -1.78 -2.88 -2.66 c0 -0.94 0.88 -1.68 2.36 -1.68 c0.86 0 2 0.38 2.66 0.8 l0.96 -1.44 c-0.94 -0.62 -2.42 -1.08 -3.6 -1.08 c-2.58 0 -4.3 1.48 -4.3 3.42 c0 1.72 0.86 2.58 3.5 4.02 c2.34 1.28 3.3 2.22 3.3 3.24 c0 1.2 -1.04 1.92 -2.66 1.92 c-1.4 0 -2.8 -0.66 -3.5 -1.3 z M281.806 20 l0 -14 l1.8 0 l0 14 l-1.8 0 z M299.08299999999997 7.720000000000001 l-4.08 0 l0 12.28 l-1.8 0 l0 -12.28 l-4.1 0 l0.12 -1.72 l9.74 0 z M315.05999999999995 6 l-4.94 7.78 l0 6.22 l-1.8 0 l0 -6.2 l-4.96 -7.8 l2.04 0 l3.82 6.02 l3.8 -6.02 l2.04 0 z"/></g>
			</g>
		</svg>
	