<?xml version="1.0" encoding="utf-8"?>
<!-- Generator: Adobe Illustrator 24.0.2, SVG Export Plug-In . SVG Version: 6.00 Build 0)  -->
<svg version="1.1" id="Layer_1" xmlns="http://www.w3.org/2000/svg" xmlns:xlink="http://www.w3.org/1999/xlink" x="0px" y="0px"
	 viewBox="0 0 808.2 468.9" style="enable-background:new 0 0 808.2 468.9;" xml:space="preserve">
<style type="text/css">
	.st0{fill-rule:evenodd;clip-rule:evenodd;fill:#ED1C2E;}
	.st1{fill-rule:evenodd;clip-rule:evenodd;fill:#FFFFFF;}
	.st2{fill-rule:evenodd;clip-rule:evenodd;fill:#CA0813;}
	.st3{fill:#FFFFFF;}
	.st4{fill:#F37021;}
	.st5{fill:#CC004C;}
	.st6{fill:#6460AA;}
	.st7{fill:#0089D0;}
	.st8{fill:#0DB14B;}
	.st9{fill:#FCB711;}
	.st10{fill:#A42433;}
	.st11{fill:#E7E7E7;}
	.st12{fill:url(#SVGID_1_);}
	.st13{fill:url(#SVGID_2_);}
	.st14{fill:url(#SVGID_3_);}
	.st15{fill:url(#SVGID_4_);}
	.st16{fill:#1C1C1E;}
	.st17{fill:#005587;}
	.st18{fill-rule:evenodd;clip-rule:evenodd;fill:#005689;}
	.st19{fill-rule:evenodd;clip-rule:evenodd;fill:#AAD8F1;}
	.st20{fill:#E90606;}
	.st21{fill:#CF0000;}
	.st22{fill:#0C0E0F;}
	.st23{fill:#C32C55;}
	.st24{fill-rule:evenodd;clip-rule:evenodd;}
	.st25{fill-rule:evenodd;clip-rule:evenodd;fill:#D4A10F;}
	.st26{fill:none;stroke:#E8EBED;stroke-width:3;stroke-miterlimit:10;}
	.st27{fill:#404040;}
	.st28{fill:#009BFF;}
	.st29{fill:#00BE97;}
	.st30{fill:#EE2824;}
</style>
<g id="providers-list">
	<g id="cnn">
		<path id="Rectangle-9" class="st0" d="M25.9,15.9h64c2.2,0,4,1.8,4,4v64c0,2.2-1.8,4-4,4h-64c-2.2,0-4-1.8-4-4v-64
			C21.9,17.7,23.7,15.9,25.9,15.9z"/>
		<path id="path2997-4" class="st1" d="M53.3,39.4c-2.2,0.2-4,2-4,4.6v12.3c0,0.4-0.3,0.8-0.8,0.8h-3.8c-8.2,0-7.5-10.6-0.5-10.6
			h4.2v-3.1h-4.3c-2.8,0-4.9,1.1-6.2,2.6c-1.4,1.6-2.1,3.7-2.1,5.8s0.7,4.2,2.1,5.8c1.4,1.6,3.6,2.6,6.5,2.6h7.2
			c0.5,0,0.9-0.4,0.9-0.9v-15c0-0.8,0.4-1.4,1-1.5c0.6-0.2,1.2,0,1.6,0.6l0,0c2,3.4,10.1,16.5,10.1,16.5c0.2,0.3,0.5,0.4,0.7,0.3
			c0.2-0.1,0.4-0.3,0.4-0.8V44.3c0-0.8,0.4-1.4,1-1.5c0.6-0.2,1.2,0,1.6,0.6l0,0l0,0c2,3.4,10.1,16.5,10.1,16.5
			c0.2,0.3,0.5,0.4,0.7,0.3c0.2-0.1,0.4-0.3,0.4-0.8V39.5H77v11.6c0,0-1.8-3.2-5-8.6c-3.1-5.3-8.9-3.1-8.9,1.5v7.1
			c0,0-1.8-3.2-4.9-8.6C56.8,40.2,55,39.3,53.3,39.4L53.3,39.4L53.3,39.4z M80.8,39.5h3.1v20.4c0,5.2-6.1,6.1-8.6,1.9
			c-1.5-2.5-5.2-8.8-5.2-8.8v6.9c0,5.2-6.1,6.1-8.6,1.9L56.3,53v6.2c0,3.2-1.8,4.9-4.7,4.9h-6.7c-17.2,0-17.3-24.6-0.2-24.6h3.8v3.1
			h-4.4c-3,0-5.3,1.1-6.8,2.9c-1.5,1.7-2.3,4-2.3,6.3c0,1.7,0.4,3.3,1.2,4.8l0,0c0.3,0.5,0.7,1,1.1,1.5c0.9,1,2,1.7,3.2,2.2
			c1.1,0.4,2.4,0.7,3.9,0.7h7.2c0.9,0,1.6-0.8,1.6-1.7v-15c0-0.5,0.2-0.7,0.4-0.8s0.3,0,0.5,0.1c0.1,0.1,0.2,0.1,0.2,0.2
			c2.1,3.4,10.2,16.5,10.2,16.5l0,0l0,0c0.4,0.5,1,0.8,1.5,0.6c0.2-0.1,0.3-0.2,0.5-0.3c0.3-0.3,0.5-0.7,0.5-1.2V44.3
			c0-0.4,0.2-0.6,0.3-0.7h0.1c0.2-0.1,0.5,0,0.7,0.3l0,0l0,0l0,0l0,0c2.1,3.4,10.1,16.5,10.1,16.5l0,0l0,0c0.3,0.4,0.8,0.7,1.2,0.7
			c0.1,0,0.2,0,0.3-0.1c0.5-0.2,0.9-0.7,0.9-1.5v-0.1C80.8,59.4,80.8,39.5,80.8,39.5z"/>
	</g>
</g>
<g>
	<g transform="translate(0.000000,249.000000) scale(0.100000,-0.100000)">
		<path d="M2417.9,2326.3c-6.7-1.7-4.1-2.3,11-2.6c11.3,0,24-2.3,29.2-4.6c26.9-12.7,24.6-55.3-3.5-67.1
			c-19.7-8.4-46.6-3.8-115.2,18.8c-76.7,25.5-100.7,30.7-141.5,30.7c-26.9-0.3-35.3-1.4-54.4-8.1c-12.4-4.1-29.5-11.9-37.6-17.4
			c-20.8-13.3-44.3-39.1-53.5-58.8c-6.9-15-7.8-20-7.8-48.6c0-27.5,0.9-33.6,6.7-45.4c13-25.8,42.3-47.8,71.2-53l11.3-2.3l-6.4,8.4
			c-9.6,13.3-11,35.3-3.5,51.5c5.2,10.1,9.6,14.5,21.4,20.3c27.5,13.9,59.3,9.6,167-22.9c72.9-21.7,110-30.4,132.5-30.4h15v-36.2
			v-35.9l-35.3-31.3c-19.4-17.1-39.1-34.4-43.7-38.5l-8.1-7.2l43.4-38.5l43.7-38.5v-50.4c0-27.8-0.9-50.9-2.3-51.8
			c-1.2-0.6-12.4-3.5-25.2-6.1c-33.9-6.9-91.7-6.4-121.6,1.4c-90,23.2-137.5,84.8-137.5,178.3c0,78.1,27.5,132.8,86.5,172.2
			c12.2,8.1,22.6,15.3,23.2,15.9c0.6,0.6-7.8-1.4-18.8-4.6c-124.2-34.1-205.8-104.2-230.4-196.5c-8.1-31-8.1-77,0.3-111.7
			c25.2-104.2,113.2-177.7,235.9-197.4c21.7-3.2,40.2-4.1,72.6-2.9c66,2.3,105,13.9,150.8,44.3c52.1,34.4,87.7,91.2,100.4,159.2
			c4.9,25.8,9.6,82.2,6.7,82.2c-0.9,0-3.5-4.6-5.8-10.1c-6.7-15.3-28.1-47.5-43.7-64.5c-19.7-21.7-53.8-45.1-81-55.6l-7.2-2.9
			l0.3,51.5v51.2l40.5,34.7c22.3,19.1,41.7,36.2,43.1,37.9c2,2-11.3,15.3-40.2,40.5L2463,2021v36.5l-0.3,36.5l18.2,3.8
			c50.9,9.8,90.3,47.5,100.7,95.8c4.3,20.3,2,50.4-5.5,66.8c-13,29.5-45.4,54.7-83.6,64.5
			C2475.5,2329.5,2432.9,2330.1,2417.9,2326.3z"/>
		<path d="M2303.6,2078.9l-59.3-24l-0.9-126.8c-0.3-70,0-128.5,0.6-130.5c0.9-2,22.6,5.2,63.7,21.7l62.5,25.2v129.7
			c0,101.6-0.9,129.4-3.5,129.1C2364.6,2103.2,2336.3,2092.2,2303.6,2078.9z"/>
	</g>
</g>
<g id="providers-list_1_">
	<g id="espn">
		<path id="Rectangle-9_1_" class="st2" d="M547.2,15.9h64c2.2,0,4,1.8,4,4v64c0,2.2-1.8,4-4,4h-64c-2.2,0-4-1.8-4-4v-64
			C543.2,17.7,545,15.9,547.2,15.9z"/>
		<path id="Fill-2" class="st1" d="M563.2,48.4h-13.8l0.5-4.5h13.9L563.2,48.4z M594.2,48.4h-30.4c0-0.7,0.2-2.4,0.8-3.2
			c0.7-0.9,1.3-1.3,2.2-1.4h25.3c1,0.1,1.6,0.6,2.1,1.5C594.5,46,594.3,47.8,594.2,48.4L594.2,48.4z M579.4,50H594
			c0,1.5-0.7,3.5-2.4,3.7h-7.3l-0.6,6.2h-5.3L579.4,50L579.4,50z M610.2,48.4h-15.5l0.4-4.5H608c1.2,0.1,2,0.7,2.1,1.8L610.2,48.4
			L610.2,48.4z M604.5,50h5.4l-1.1,9.9h-5.3L604.5,50L604.5,50z M594.6,50h5.4l-1.1,9.9h-5.3L594.6,50L594.6,50z M577.1,50
			c0.8,0.4,1.4,1.3,1.4,2.3c0,0.3-0.4,4.4-0.5,4.8c-0.6,1.8-1.7,2.6-2.7,2.7h-12.7l0.4-4.5h9.9l0.3-1.6l-7.4,0.1c0,0-1.6,0.1-2-1.5
			c-0.2-0.8-0.3-1.5-0.2-2.3H577.1z M562.5,54h-8.1l-0.2,1.3h8.2l-0.5,4.5h-13.6v-0.1l1-9.8h13.8L562.5,54L562.5,54z"/>
	</g>
</g>
<g>
	<path id="path97" class="st1" d="M50.8,209.7v24.7l5.1-6.9v-24.7L50.8,209.7z M38.7,226.3v8.1h5v-15L38.7,226.3z M44.7,218v16.3
		h5.1V211L44.7,218z M61.8,209.7v24.7l-5.1-6.9v-24.7L61.8,209.7z M73.8,226.3v8.1h-5v-15L73.8,226.3z M67.8,218v16.3h-5.1V211
		L67.8,218z M74,195.3v8.5l-5.2,6.9v-15.4H74L74,195.3z M67.8,212v-16.7h-5.1v14l3.5,4.8L67.8,212z M61.8,195.5l-4.6,6.1l4.6,6.3
		V195.5z M38.5,195.3v8.5l5.2,6.9v-15.4H38.5L38.5,195.3z M44.6,212v-16.7h5.1v13.9l-3.5,4.8L44.6,212z M50.7,195.5l4.6,6.1
		l-4.6,6.3V195.5z"/>
	<path class="st3" d="M57.9,190.2c-1.3-3.4-4.6-7-10.8-6.5c-7.9,0.8-10.3,8.3-9.1,12.7c-3.1-2.1-8.4-3-13.1,0.9
		c-6,5.9-2.8,14,0.5,15.9c-3.6-0.4-9.4,2.1-10.6,8.4c-1.3,7.9,4.7,12.5,10.6,12.5H91c6.8,0,10.6-5.8,10.2-11.4
		c-0.7-7.2-7.3-10-11-9.4c3-1.7,7.1-9.6,0.9-15.7c-4.9-4.6-11.1-2.9-13.3-1c1.2-3.8-0.8-11.8-8.7-13.1c-0.5,0-1.1-0.1-1.6-0.1
		C61.4,183.7,58.7,188.1,57.9,190.2"/>
	<path class="st4" d="M25.9,198.7c-3.5,3.1-4.7,10.1,1.5,14.2l24.9,16.9l-12.1-27.4C37.8,196,30.8,194.6,25.9,198.7"/>
	<path class="st5" d="M47.4,185.4c-4,0.1-10.1,4.8-7.4,12.1l12.5,29.2l4.4-30.6C57.9,188.4,52,184.9,47.4,185.4"/>
	<path class="st6" d="M58.8,194.8h2.4c0,0,1.3,0,1.4,0.6c-0.9,0.7-3.5,0.8-3.1,4.9l4,26.4l12.4-29.2c2.5-6.5-2.8-12-7.5-12.1
		c-0.2,0-0.4,0-0.7,0C63.4,185.3,58.5,188.3,58.8,194.8"/>
	<path class="st7" d="M75.3,202.7l-11.7,27l24.9-17c5.7-4,4.8-10.5,1.6-13.7c-1.3-1.5-3.8-2.6-6.4-2.6
		C80.6,196.5,77.3,198.1,75.3,202.7"/>
	<path class="st8" d="M85.7,216.6l-23.4,16.2h28.8c5.9,0,9.7-6,8-11.6c-1.1-3.5-4.5-6.2-8.4-6.2C89.1,215,87.4,215.5,85.7,216.6"/>
	<path class="st9" d="M25.3,232.8h28.4l-23.4-16.2c-5.4-3.4-11.5-1.4-13.7,4.3C14.7,227.4,19.4,232.8,25.3,232.8"/>
	<path d="M99.5,253.6l-2.4-2.4c-0.7,0.6-1.4,1.1-2,1.5s-1.5,0.5-2.5,0.5c-0.7,0-1.4-0.1-2-0.4c-0.6-0.3-1.1-0.7-1.6-1.2
		c-0.4-0.5-0.8-1.1-1-1.7c-0.2-0.7-0.4-1.4-0.4-2.1l0,0c0-0.7,0.1-1.4,0.4-2.1c0.2-0.7,0.6-1.2,1-1.7s1-0.9,1.6-1.2s1.3-0.4,2-0.4
		c0.9,0,1.7,0.2,2.4,0.5c0.7,0.3,1.4,0.8,2.1,1.4l2.4-2.8c-0.4-0.4-0.8-0.8-1.3-1.1s-1-0.6-1.5-0.8s-1.2-0.4-1.8-0.5
		s-1.4-0.2-2.2-0.2c-1.3,0-2.6,0.2-3.7,0.7s-2.1,1.1-2.8,1.9c-0.8,0.8-1.4,1.8-1.9,2.8s-0.7,2.2-0.7,3.5l0,0c0,1.2,0.2,2.4,0.7,3.5
		c0.4,1.1,1.1,2,1.9,2.8s1.7,1.4,2.8,1.9c1.1,0.5,2.3,0.7,3.5,0.7c0.8,0,1.6-0.1,2.3-0.2c0.7-0.1,1.3-0.3,1.9-0.6
		c0.6-0.3,1.1-0.6,1.6-1C98.6,254.5,99.1,254.1,99.5,253.6z M83,251.7L83,251.7c0-1.2-0.3-2.1-0.9-2.8c-0.6-0.6-1.4-1.2-2.4-1.5
		c0.3-0.2,0.6-0.4,0.9-0.6c0.3-0.2,0.5-0.5,0.7-0.8s0.4-0.6,0.5-1s0.2-0.8,0.2-1.3v-0.1c0-1.4-0.5-2.4-1.5-3.3
		c-1-0.8-2.4-1.2-4.2-1.2h-8v17.3h8.2c1,0,1.9-0.1,2.7-0.3c0.8-0.2,1.5-0.5,2.1-0.9s1-0.9,1.3-1.5C82.8,253.1,83,252.4,83,251.7
		L83,251.7z M78.3,244.3c0,0.6-0.2,1.1-0.7,1.4c-0.5,0.3-1.2,0.4-2,0.4H72v-3.7h3.8c0.8,0,1.4,0.2,1.9,0.5
		C78,243.2,78.3,243.6,78.3,244.3L78.3,244.3z M79.2,251.2c0,0.6-0.2,1.1-0.7,1.4c-0.5,0.3-1.1,0.5-2,0.5H72v-3.8h4.4
		c1,0,1.7,0.2,2.2,0.5C79,250.1,79.2,250.6,79.2,251.2L79.2,251.2z M66,256.4v-17.3h-3.8v10.7l-8.1-10.7h-3.5v17.3h3.8v-11l8.4,11
		H66z M49,251.3L49,251.3c0-0.8-0.1-1.5-0.4-2c-0.2-0.5-0.6-1-1.1-1.4s-1-0.7-1.7-1s-1.5-0.6-2.3-0.8c-0.7-0.2-1.4-0.4-1.8-0.5
		c-0.5-0.1-0.9-0.3-1.1-0.5c-0.3-0.2-0.5-0.4-0.6-0.6c-0.1-0.2-0.2-0.5-0.2-0.7l0,0c0-0.4,0.2-0.8,0.6-1.1c0.4-0.3,0.9-0.4,1.7-0.4
		c0.7,0,1.5,0.2,2.2,0.5s1.5,0.7,2.3,1.2l2-2.9c-0.9-0.7-1.9-1.3-2.9-1.6c-1.1-0.4-2.2-0.6-3.5-0.6c-0.9,0-1.7,0.1-2.4,0.4
		c-0.7,0.2-1.4,0.6-1.9,1.1s-1,1-1.3,1.6s-0.4,1.3-0.4,2.1l0,0c0,0.9,0.1,1.6,0.4,2.2c0.3,0.6,0.7,1.1,1.1,1.4
		c0.5,0.4,1.1,0.7,1.8,1s1.5,0.5,2.4,0.7c0.7,0.2,1.3,0.4,1.8,0.5c0.5,0.2,0.8,0.3,1.1,0.5s0.4,0.3,0.5,0.5s0.1,0.4,0.1,0.7l0,0
		c0,0.5-0.2,0.9-0.7,1.2c-0.4,0.3-1.1,0.4-1.8,0.4c-1,0-1.9-0.2-2.7-0.6c-0.8-0.4-1.6-0.9-2.4-1.5l-2.3,2.7c1,0.9,2.2,1.6,3.5,2.1
		c1.3,0.5,2.6,0.7,3.9,0.7c0.9,0,1.8-0.1,2.6-0.4c0.8-0.2,1.4-0.6,2-1s1-1,1.3-1.7C48.9,252.9,49,252.1,49,251.3L49,251.3z
		 M34.1,256.4v-17.3H30l-4.6,7.3l-4.6-7.3h-4.1v17.3h3.7v-11.2l4.8,7.3h0.1l4.9-7.4v11.3L34.1,256.4L34.1,256.4z"/>
</g>
<g transform="translate(-20 -306.79)">
	<path class="st10" d="M297.7,520.7c0-1-0.7-1.8-2-1.8h-57.2l-5.7,3.3l17.2,1.2l47.8-2.2L297.7,520.7z"/>
	<path class="st11" d="M205.2,520.7c0-1.1,0.8-1.9,1.8-1.9h31.5v0.5l-3.1,4.6h-27L205.2,520.7z"/>
	
		<linearGradient id="SVGID_1_" gradientUnits="userSpaceOnUse" x1="229.0202" y1="322.6915" x2="229.0276" y2="334.2868" gradientTransform="matrix(1.4241 0 0 1.4241 -61.6025 59.7992)">
		<stop  offset="0" style="stop-color:#FA99A2"/>
		<stop  offset="0.1" style="stop-color:#E07B81"/>
		<stop  offset="0.2" style="stop-color:#CE6164"/>
		<stop  offset="0.3" style="stop-color:#C45050"/>
		<stop  offset="0.4" style="stop-color:#BA4241"/>
		<stop  offset="0.5" style="stop-color:#B83C3A"/>
		<stop  offset="0.6" style="stop-color:#B33833"/>
		<stop  offset="0.7" style="stop-color:#B23531"/>
		<stop  offset="0.8" style="stop-color:#B0332D"/>
		<stop  offset="0.9" style="stop-color:#B0332D"/>
		<stop  offset="1" style="stop-color:#B0332D"/>
	</linearGradient>
	<path class="st12" d="M237.3,521.6l1.3-2.2H296c0.8,0,1.7,0.7,1.7,1.7v15.1l-18.1-1l-48.2-2.6L237.3,521.6z"/>
	
		<linearGradient id="SVGID_2_" gradientUnits="userSpaceOnUse" x1="199.0748" y1="322.6909" x2="199.0748" y2="334.5581" gradientTransform="matrix(1.4241 0 0 1.4241 -61.6025 59.7992)">
		<stop  offset="0" style="stop-color:#FEFEFE"/>
		<stop  offset="0.5" style="stop-color:#FCFCFC"/>
		<stop  offset="1" style="stop-color:#F2F2F2"/>
	</linearGradient>
	<path class="st13" d="M205.2,536.2v-15.5c0-0.6,0.6-1.4,1.4-1.4h32v9.3l-6.4,5.2L205.2,536.2z"/>
	
		<linearGradient id="SVGID_3_" gradientUnits="userSpaceOnUse" x1="230.6276" y1="329.3116" x2="230.2237" y2="336.0114" gradientTransform="matrix(1.4241 0 0 1.4241 -61.6025 59.7992)">
		<stop  offset="0" style="stop-color:#961E28"/>
		<stop  offset="0.2" style="stop-color:#941C26"/>
		<stop  offset="0.4" style="stop-color:#961E27"/>
		<stop  offset="0.6" style="stop-color:#A5232D"/>
		<stop  offset="0.8" style="stop-color:#B1282F"/>
		<stop  offset="1" style="stop-color:#B52A31"/>
	</linearGradient>
	<path class="st14" d="M238.5,537.8l-3.1-5.3l3.1-3.9c0,0,9.6-0.5,16.7-0.5c2.9,0,8.5,0.4,8.5,0.4c19.8,0.4,33.9,4.7,33.9,7.6
		c0,0.8-0.9,1.6-1.8,1.6L238.5,537.8z"/>
	
		<linearGradient id="SVGID_4_" gradientUnits="userSpaceOnUse" x1="199.0748" y1="329.21" x2="199.0748" y2="335.6702" gradientTransform="matrix(1.4241 0 0 1.4241 -61.6025 59.7992)">
		<stop  offset="0" style="stop-color:#DFEAE6"/>
		<stop  offset="0.5" style="stop-color:#E6E7E9"/>
		<stop  offset="1" style="stop-color:#E6E7E9"/>
	</linearGradient>
	<path class="st15" d="M205.2,536.2c0-1.1,1.6-3.1,3.6-3.4l7.3-2c4.7-1,18.1-2.2,22.5-2.2v9.2H207
		C206,537.8,205.2,537.1,205.2,536.2L205.2,536.2z"/>
	<g transform="matrix(1.0003 0 0 1.0003 -377.99 -261.93)">
		<path class="st16" d="M597.8,793.9c0,0.9-0.3,1.4-2.1,1.4c-0.2,0-0.4,0-0.6,0v-11.7c0-0.9,0.3-1.8,2-1.8c0.2,0,0.4,0,0.6,0.1
			L597.8,793.9L597.8,793.9z M594.2,792.1c0,1.6-1.1,2.8-3.2,3.1c-1.6,0.2-3.9,0-5-0.2c0-0.2-0.1-0.4-0.1-0.6c0-1.4,0.8-1.8,1.5-1.8
			c0.8,0,1.9,0.1,2.8,0.1c1,0,1.3-0.3,1.3-0.6c0-0.4-0.4-0.6-1.1-0.7l-2.1-0.4c-1.7-0.3-2.6-1.5-2.6-2.8c0-1.5,1.1-2.8,3.2-3.1
			c1.6-0.2,3.6,0,4.7,0.2c0,0.2,0.1,0.4,0.1,0.5c0,1.4-0.8,1.7-1.5,1.7c-0.5,0-1.4-0.1-2.4-0.1s-1.4,0.3-1.4,0.6
			c0,0.4,0.4,0.5,1,0.6l2,0.4C593.3,789.6,594.2,790.7,594.2,792.1 M604.8,798.4c0.2,0.1,0.7,0.3,1.3,0.3c1,0,1.5-0.4,1.9-1.3
			l5.4-12c-0.2-0.1-0.7-0.2-1.1-0.3c-0.7,0-1.6,0.1-2.2,1.5l-1.7,4.1l-3.4-5.5c-0.2-0.1-0.8-0.2-1.1-0.2c-1.2,0-1.9,0.4-2.6,1.2
			l-3.3,3.6l2.7,4.2c0.5,0.8,1.1,1.2,2.2,1.2c0.7,0,1.3-0.2,1.5-0.3l-3.2-4.8l2.3-2.4l3.7,5.9"/>
	</g>
	<path class="st3" d="M244.4,535.2c-0.8,0-1.3-0.1-1.3-0.1v-13.5c0,0,0.7-0.3,1.5-0.3c1.4,0,1.7,0.6,2.2,1.4l5.2,8.2v-8.5
		c0-0.6,0.3-1.1,1.3-1.1c0.7,0,1.2,0.1,1.2,0.1V535c0,0-0.5,0.2-1.3,0.2c-1.3,0-1.5-0.5-2.1-1.4l-5.3-8.4v8.8
		C245.7,534.6,245.5,535.2,244.4,535.2L244.4,535.2z"/>
	<path class="st3" d="M257.5,535.1c-0.9,0-1.2-0.6-1.2-1.2v-11.2c0-0.8,0.4-1.3,1.3-1.3h7.1c0,0,0.1,0.3,0.1,1.2s-0.4,1.3-1,1.3
		h-4.9v3.2h5.2c0,0,0.2,0.2,0.2,1c0,1-0.4,1.3-1.1,1.3H259v3.2h5.9c0,0,0.1,0.4,0.1,1.1c0,0.9-0.3,1.3-1.1,1.3L257.5,535.1z"/>
	<path class="st3" d="M266.1,521.7c0,0,0.7-0.4,1.4-0.4c0.9,0,1.3,0.3,1.5,1.3l1.6,9l2.2-9.4c0.2-0.5,0.8-0.9,1.9-0.9
		c0.7,0,1.4,0.2,1.4,0.2l2.4,10.1l1.6-9.3c0.1-0.7,0.5-1.1,1.4-1.1c0.8,0,1.4,0.3,1.4,0.3l-2.4,12c-0.2,1.2-0.6,1.6-2,1.6
		c-0.8,0-1.5-0.2-1.5-0.2l-2.3-10l-2,8.5c-0.3,1.2-0.6,1.6-1.9,1.6c-0.9,0-1.6-0.2-1.6-0.2L266.1,521.7z"/>
	<path class="st3" d="M288.6,521.2c-2.7,0-5,1.2-5,4c0,5,7.3,3.5,7.3,6c0,1.1-0.8,1.6-2.4,1.6c-1.7,0-3.1-0.5-3.7-0.5
		c-0.8,0-1.2,0.9-1.2,1.7c0,0.3,0.1,0.5,0.1,0.5s2.3,0.8,4.9,0.8c2.9,0,5.2-1.2,5.2-4.2c0-5-7.5-3.6-7.5-5.9c0-1,1-1.4,2.3-1.4
		c1.2,0,2.5,0.5,3.3,0.5s1.2-0.7,1.2-1.6c0-0.4-0.1-0.6-0.1-0.6S290.7,521.2,288.6,521.2L288.6,521.2z"/>
</g>
<g>
	<circle class="st17" cx="405.9" cy="51.9" r="39.9"/>
	<g>
		<path class="st3" d="M389.6,48.3c-1,1.4-2.6,2.3-4.3,2.3c-2.5,0-4.7-1.8-5.2-4.3v-0.1h12.1c0-0.3,0.1-0.7,0.1-1l0,0v-0.1
			c0-3.9-3.1-7.2-7-7.2s-6.9,3.2-6.9,7.1s3.1,7.2,7,7.2c2.6,0,5-1.5,6.2-3.9l0.2-0.3h-1.9C389.7,48.1,389.6,48.2,389.6,48.3z
			 M380,44.4c0.3-2.7,2.6-4.8,5.3-4.8c2.6,0,4.9,2.1,5.3,4.8v0.1L380,44.4L380,44.4L380,44.4z"/>
		<path class="st3" d="M400,52.3c-0.7,0-1.5-0.1-2.2-0.4c-0.7-0.3-1.3-0.7-1.8-1.2s-0.9-1.1-1.2-1.8c-0.3-0.7-0.4-1.5-0.4-2.3v-8.3
			h1.6v8.2c0,0.6,0.1,1.2,0.3,1.8c0.4,1,1.1,1.8,2.1,2.2s2.1,0.4,3.1,0c0.5-0.2,0.9-0.5,1.3-0.9s0.7-0.9,0.9-1.3
			c0.2-0.6,0.3-1.2,0.3-1.8v-8.2h1.6v8.3c0,0.8-0.2,1.6-0.5,2.3c-0.6,1.3-1.6,2.4-3,3C401.5,52.1,400.8,52.3,400,52.3z"/>
		<path class="st3" d="M408,51.9V44c0-0.6,0.1-1.1,0.2-1.7c0.2-0.7,0.5-1.4,0.9-2c0.5-0.7,1.3-1.3,2.1-1.7c1-0.5,2.2-0.7,3.7-0.7
			h0.3v1.7h-0.3c-0.9,0-1.8,0.1-2.7,0.4c-0.6,0.2-1.1,0.6-1.6,1c-0.3,0.4-0.6,0.9-0.8,1.4c-0.1,0.5-0.2,1-0.2,1.5v7.9L408,51.9
			L408,51.9z"/>
		<path class="st3" d="M386.8,65.8v-6.1c0-0.4,0-0.9-0.2-1.3c-0.1-0.4-0.3-0.7-0.6-1c-0.2-0.3-0.5-0.5-0.9-0.6
			c-0.7-0.3-1.5-0.3-2.2,0c-0.3,0.1-0.6,0.3-0.9,0.6s-0.5,0.6-0.6,1c-0.2,0.4-0.2,0.8-0.3,1.3v6.1h-2.7v-6.2c0-0.8,0.2-1.5,0.4-2.3
			c0.3-0.7,0.7-1.3,1.2-1.8s1.1-0.9,1.8-1.2c1.4-0.5,2.9-0.6,4.3,0c0.7,0.3,1.3,0.7,1.8,1.2s0.9,1.1,1.2,1.8
			c0.3,0.7,0.4,1.5,0.4,2.3v6.2H386.8L386.8,65.8L386.8,65.8z"/>
		<path class="st3" d="M396.7,66.1c-3.2,0-5.9-2.7-5.9-6.1c0-3.3,2.6-6.1,5.9-6.1c3.2,0,5.9,2.7,5.9,6.1c0,0.3,0,0.6-0.1,0.9V61
			h-9.2v0.1c0.6,1.8,2.5,2.9,4.3,2.3c0.5-0.1,0.9-0.4,1.3-0.7l0.2-0.2h2.9l-0.1,0.2C400.9,64.9,398.9,66.1,396.7,66.1z M396.7,56.4
			c-1.5,0-2.9,1-3.3,2.5V59h6.8v-0.1C399.6,57.4,398.2,56.4,396.7,56.4z"/>
		<path class="st3" d="M403.5,54.3L403.5,54.3l2.9-0.1c0.4,2.8,1.3,7.2,2.1,9.2c0.8-2,1.8-6.4,2.2-9.2h2.4c0.4,2.8,1.3,7,2.2,9.2
			c0.8-2.2,1.7-6.4,2.1-9.2h2.9v0.1c-0.7,4.4-1.9,8.9-3,11.5h-3.6c-0.8-1.8-1.3-3.7-1.7-5.7c-0.4,2-1.1,4.4-1.7,5.7h-3.6
			C405.2,62.9,403.9,58,403.5,54.3z"/>
		<path class="st3" d="M421.4,65.3v-2.2h0.1c1,0.3,2,0.4,3.1,0.5h0.6c0.9,0,1.7-0.3,1.7-1.2c0-0.7-0.6-1-1.3-1.2l-1.8-0.5
			c-1.3-0.3-2.4-1.2-2.4-3.2c0-2.3,1.9-3.3,4.2-3.3h0.6c0.7,0,2.2,0.2,2.8,0.4v2.2h-0.1c-0.9-0.2-1.8-0.3-2.7-0.4h-0.5
			c-0.8,0-1.6,0.2-1.6,1c0,0.7,0.5,0.9,1.1,1.1L427,59c1.7,0.5,2.6,1.5,2.6,3.3c0,2.6-1.8,3.5-4.4,3.5h-0.6
			C423.5,65.8,422.4,65.6,421.4,65.3z"/>
		<circle class="st3" cx="433.7" cy="63.4" r="2.4"/>
		<path class="st3" d="M422.6,38c-3.9,0-7,3.2-7,7.2s3.1,7.2,7,7.2s7-3.2,7-7.2S426.5,38,422.6,38z M422.6,50.4
			c-2.7,0-4.9-2.3-4.9-5.2s2.2-5.2,4.9-5.2c2.7,0,4.9,2.3,4.9,5.2S425.4,50.4,422.6,50.4z"/>
	</g>
</g>
<g id="providers-list_4_">
	<g id="theguardian">
		<path id="Rectangle-9_3_" class="st18" d="M24.7,354.5h64c2.2,0,4,1.8,4,4v64c0,2.2-1.8,4-4,4h-64c-2.2,0-4-1.8-4-4v-64
			C20.7,356.3,22.5,354.5,24.7,354.5z"/>
		<g id="The_Guardian" transform="translate(20.000000, 30.000000)">
			<path id="Fill-3" class="st1" d="M59.2,358l-0.4,1.3h-1.1v-1.6c0.6-0.2,1.4-0.5,2.5-0.5c1.7,0,2.5,0.7,2.5,2v3.4l0.7,0.3v0.5
				c-0.2,0.1-0.8,0.2-1.3,0.2c-0.6,0-1.2-0.2-1.2-0.9h-0.1c-0.3,0.6-1,0.9-1.8,0.9c-1.1,0-1.8-0.7-1.8-1.7c0-1.3,0.8-1.5,2.2-1.8
				l1.2-0.2v-0.7c0-0.8-0.2-1.2-1-1.2C59.5,357.9,59.3,358,59.2,358 M60.7,362.3v-1.8h-0.5c-0.5,0-0.9,0.4-0.9,1c0,0.7,0.4,1,0.8,1
				C60.3,362.5,60.5,362.4,60.7,362.3"/>
			<path id="Fill-4" class="st1" d="M36.9,358l-0.4,1.3h-1.1v-1.6c0.6-0.2,1.4-0.5,2.5-0.5c1.7,0,2.5,0.7,2.5,2v3.4l0.7,0.3v0.5
				c-0.2,0.1-0.8,0.2-1.3,0.2c-0.6,0-1.1-0.2-1.2-0.9h-0.1c-0.3,0.6-1,0.9-1.8,0.9c-1.1,0-1.8-0.7-1.8-1.7c0-1.3,0.8-1.5,2.2-1.8
				l1.2-0.2v-0.7c0-0.8-0.2-1.2-1-1.2C37.2,357.9,37,358,36.9,358 M38.3,362.3v-1.8h-0.5c-0.5,0-0.9,0.4-0.9,1c0,0.7,0.4,1,0.8,1
				C38,362.5,38.2,362.4,38.3,362.3"/>
			<path id="Fill-7" class="st1" d="M25.2,362.2h-2.1c-0.3,0-0.5-0.2-0.5-0.4c0-0.2,0-0.4,0.2-0.5c0.3,0.1,0.7,0.2,1.1,0.2
				c1.6,0,2.7-0.7,2.7-2c0-0.6-0.2-1-0.6-1.3v-0.1l1.1,0.3v-1.2H27l-1.5,0.3h-0.1c-0.5-0.2-0.9-0.3-1.4-0.3c-1.6,0-2.7,0.8-2.7,2.1
				c0,0.8,0.3,1.4,1,1.8v0.1c-0.6,0.4-1,1-1,1.5s0.3,1,1,1.2v0.1c-0.6,0.2-1.4,0.4-1.4,1.1c0,0.8,1,1.4,3,1.4c2.4,0,3.5-1,3.5-2.5
				C27.4,362.7,26.6,362.2,25.2,362.2 M24,357.9c0.4,0,0.7,0.3,0.7,1.4c0,1-0.3,1.3-0.7,1.3c-0.4,0-0.7-0.3-0.7-1.3
				C23.2,358.2,23.5,357.9,24,357.9 M23.9,365.5c-1.1,0-1.6-0.3-1.6-0.7c0-0.3,0.1-0.6,0.3-0.8H25c0.5,0,0.9,0.1,0.9,0.5
				C25.9,365.2,25.3,365.5,23.9,365.5"/>
			<path id="Fill-8" class="st1" d="M53.5,357.5v0.6l0.8,0.3v4.1l-0.7,0.3v0.6h3.5v-0.6l-0.7-0.3v-5.4h-0.2L53.5,357.5"/>
			<path id="Fill-9" class="st1" d="M41.4,357.5v0.6l0.8,0.3v4.1l-0.7,0.3v0.6h3.8v-0.6l-1-0.3v-3.4c0.4-0.2,0.8-0.2,1.4-0.2
				c0.2,0,0.4,0,0.5,0.1v-1.8c-0.1,0-0.2,0-0.3,0c-0.7,0-1.2,0.4-1.6,1.3h-0.1v-1.3H44L41.4,357.5"/>
			<path id="Fill-10" class="st1" d="M55.3,354.6c0.6,0,1.1,0.4,1.1,1s-0.4,1.1-1,1.1h-0.1c-0.6,0-1.1-0.5-1-1.1
				C54.3,355.1,54.7,354.6,55.3,354.6"/>
			<path id="Fill-11" class="st1" d="M50.4,362.4v-4.2c-0.2-0.1-0.3-0.2-0.7-0.2c-0.6,0-1.1,0.6-1.1,2.3c0,1.5,0.4,2.2,1.2,2.2
				C50.1,362.5,50.3,362.5,50.4,362.4 M50.4,355.9l-0.8-0.3V355l2.7-0.4h0.2v7.8l0.7,0.4v0.6l-2.5,0.3h-0.2V363h-0.1
				c-0.3,0.3-0.8,0.7-1.6,0.7c-1.1,0-2.5-0.7-2.5-3.1c0-2.5,1.4-3.4,3-3.4c0.3,0,0.7,0.1,1,0.3L50.4,355.9"/>
			<path id="Fill-12" class="st1" d="M28.2,358.5l-0.8-0.3v-0.6l2.7-0.4h0.2v4.4c0,0.7,0.3,0.8,0.9,0.8c0.4,0,0.5-0.1,0.7-0.1v-3.7
				l-0.8-0.3v-0.6l2.7-0.4H34v5.3l0.8,0.4v0.5l-2.6,0.3H32V363h-0.1c-0.4,0.5-1,0.9-1.9,0.9c-1.2,0-1.8-0.9-1.8-2L28.2,358.5"/>
			<path id="Fill-14" class="st1" d="M63.8,362.8l0.7-0.3v-4.1l-0.8-0.3v-0.6l2.6-0.4h0.2v0.8h0.1c0.6-0.5,1.4-0.8,2.1-0.8
				c1,0,1.6,0.5,1.6,1.7v3.8l0.7,0.3v0.6h-3.5v-0.6l0.7-0.3v-3.2c0-0.6-0.3-0.9-0.8-0.9c-0.3,0-0.6,0.1-0.8,0.2v3.9l0.7,0.3v0.6
				h-3.5L63.8,362.8"/>
		</g>
		<g id="Fill-5-_x2B_-Fill-6-_x2B_-Fill-13" transform="translate(1.000000, 30.000000)">
			<path id="Fill-5" class="st19" d="M22.6,361.8v-3.4h-1v-0.9l1-0.1v-1.2l2.1-0.3v1.5H26v1.1h-1.4v3.3c0,0.6,0.2,0.9,0.8,0.9
				c0.2,0,0.5,0,0.7,0v0.8c-0.3,0.2-1,0.4-1.7,0.4C23.2,363.6,22.6,363.1,22.6,361.8"/>
			<path id="Fill-6" class="st19" d="M35.9,360.6h3.7c0-2.6-0.9-3.4-2.8-3.4c-1.8,0-3.1,1.2-3.1,3.2c0,2.1,1.1,3.3,3.2,3.3
				c1.1,0,2.1-0.5,2.4-0.9v-0.6c-0.4,0.1-0.9,0.2-1.7,0.2C36.6,362.3,36,361.8,35.9,360.6 M36.8,357.9c0.5,0,0.8,0.2,0.8,1.8
				l-1.7,0.1C35.9,358.4,36.1,357.9,36.8,357.9"/>
			<path id="Fill-13" class="st19" d="M26.5,362.8l0.7-0.3v-6.6l-0.8-0.3V355l2.6-0.4h0.2v3.4h0.1c0.6-0.5,1.3-0.8,2.1-0.8
				c1,0,1.6,0.5,1.6,1.7v3.8l0.7,0.3v0.6h-3.5V363l0.7-0.3v-3.2c0-0.6-0.3-0.9-0.8-0.9c-0.3,0-0.6,0.1-0.9,0.2v3.9l0.7,0.3v0.6h-3.5
				L26.5,362.8"/>
		</g>
	</g>
</g>
<path class="st20" d="M229.8,376.2c0,0-1,0-1.6,0c0,0.2-0.3,2.4-0.5,4.2c-0.3,1.6-2.5,13.7-3.2,17.4c-0.2,1.1-0.8,4.2-0.9,4.5
	c-0.7,0.1-1.5,0.2-2,0.2c-0.1,0-0.2,0-0.2,0v0.6c0.1,0,0.4,0,0.7,0c0.6,0,2.3-0.1,2.6-0.1c1.2,0,2,0.1,3.1,0.1c0,0,0.3,0,0.5,0v-0.6
	c-0.1,0-0.2,0-0.3,0c-0.3,0-1.5-0.1-2.1-0.2c0.1-0.4,1.1-6.7,1.6-9.2c0.9-4.6,1.6-7.9,1.6-7.9l0.2,0.4l7.4,17.6h1.3
	c0,0,0.8-1.9,1.7-4c0-0.1,0.1-0.2,0.2-0.4c1-2.2,5.7-13.5,5.7-13.5s0,0.2,0.1,0.6c0.5,2.2,2,10.1,2.3,12.1c0.2,1,0.3,2,0.4,2.6
	c0.1,0.8,0.2,1.6,0.2,1.9c-0.1,0-1.7,0.1-2.2,0.2c-0.1,0-0.2,0-0.2,0v0.6c0.2,0,0.4,0,0.6,0c1.2,0,2.3-0.1,3.4-0.1
	c1.3,0,3.4,0.1,4.8,0.1c0.2,0,0.4,0,0.4,0v-0.6c-0.1,0-0.4,0-0.5,0c-0.6,0-1.6-0.1-1.9-0.2c0,0-0.2-0.9-0.4-2
	c-0.9-4.3-3.4-17.3-3.8-20.5c-0.1-1.1-0.5-3.6-0.5-3.6h-1.5c0,0-0.8,2.2-1.5,4.2c-0.5,1.4-1.1,3.1-1.6,4.4
	c-2.5,6.5-5.2,12.5-5.2,12.5s-5.9-14-6.2-14.8C231.7,381.8,229.8,376.2,229.8,376.2L229.8,376.2z M187.6,376.2v1.5v3.6h0.4v-3.2
	c0,0,2.1,0,2.4,0h4h2.6v22.3v1.9h-0.1c-0.3,0-1.7,0.1-2.2,0.1c-0.1,0-0.2,0-0.2,0v0.7c0.1,0,0.4,0,0.4,0c1.3,0,3-0.1,4.2-0.1
	s3,0.1,4.1,0.1c0.1,0,0.2,0,0.3,0v-0.6h-0.1c-0.3,0-2.2-0.1-2.4-0.1c0-0.3,0-1.7,0-1.8v-22.5h2h5.1h1.7c0,0.1,0.1,1.7,0.1,1.8
	c0,0.1,0.1,1.3,0.1,1.6h0.4v-3.6v-1.6c-1.5,0-5.3,0.1-11.3,0.1C193.9,376.3,188.9,376.3,187.6,376.2L187.6,376.2z M211.4,376.2v0.6
	c0.2,0,1.4,0.1,1.7,0.1c0.2,0,0.6,0.1,0.8,0.1c0,0.2,0,1.6,0,2.2c0,5.3,0,16.9,0,21.1c0,1.2,0,2,0,2c-0.1,0-0.5,0.1-0.8,0.1
	s-1.4,0.1-1.6,0.1v0.6c0.1,0,0.3,0,0.4,0c1.2,0,2.9-0.2,4.2-0.2s3,0.2,4,0.2l0,0c0.1,0,0.3,0,0.4,0v-0.6h-0.1c0,0-1.3-0.1-1.6-0.1
	c-0.2,0-0.9-0.1-0.9-0.1s0-0.2,0-0.5s0-0.8,0-1.3c0-4.2,0-16.5,0-21.3c0-0.9,0-1.7,0-2.1c0.3,0,1.4-0.1,1.8-0.2c0,0,0.6,0,0.8,0
	v-0.7c-1.4,0-3.2,0.1-4.6,0.1C214.3,376.3,212.6,376.2,211.4,376.2L211.4,376.2z M275.7,376.3c0,0-0.1,0-0.4,0c-0.9,0-3.3,0-6.1,0
	c-1.7,0-3,0-4.8,0c-1.2,0-3,0.1-4,0.1c-1.7,0-3.1-0.1-3.9-0.1c-0.4,0-0.6,0-0.7,0v0.6c0.1,0,0.2,0,0.3,0c0.4,0,1.2,0.1,1.6,0.1
	c0.1,0,0.2,0,0.6,0.1c0,0.1,0,1.7,0,2.7c0,0.9,0,20.8,0,20.8s0,1.6,0,1.7c-0.7,0.1-2,0.2-2.4,0.2h-0.1v0.6c0.1,0,0.4,0,0.5,0
	c0.7,0,2.6-0.1,4.4-0.1c1.3,0,2.8,0,4.2,0.1c1.8,0,3.6,0,5.3,0c2.7,0,4.9,0,5.6,0c0,0,0.1-5,0.1-5.4h-0.4c0,0.4-0.2,2-0.2,2.1
	c-0.1,0.6-0.1,1.2-0.1,1.5c0,0-0.2,0-0.3,0c-0.4,0-1.9,0-1.9,0h-6.3l-4.5-0.1V400v-9.6c0.8,0,2-0.1,2.7-0.1c0.6,0,2.1,0,2.9,0
	c2,0,3.8,0,3.9,0c0.3,0,0.9,0,1.2,0c0,0.1,0,0.2,0,0.3c0.1,0.7,0.2,1.2,0.3,2c0,0.1,0,0.1,0,0.2h0.5c0,0,0-0.3,0-0.4
	c0-0.6,0-1.7,0-2.9c0-0.9,0-2.2,0.1-2.8c0-0.2,0-0.3,0-0.3h-0.4c0,0.1,0,0.3,0,0.3c0,0.5-0.2,1.1-0.3,1.7c0,0.1-0.1,0.2-0.1,0.2
	s-1.4,0.1-1.5,0.1l-2,0.1h-7.3v-10.6c0,0,0.9,0,1.2,0c1.1,0,2.8,0,4.5,0c2.6,0,5.1,0,5.1,0h0.8c0,0,1,0,1.2,0.1c0,0,0,0.1,0,0.2
	c0.1,1.1,0.2,2.4,0.2,2.9v0.2h0.4c0-0.7,0-2.8,0-4.1c0-0.4,0-0.8,0-1L275.7,376.3L275.7,376.3z"/>
<path id="path236" class="st21" d="M535.4,370.7c-0.7,0-1.2,0.5-1.2,1.2s0.5,1.2,1.2,1.2h9.6c0,0,4.5-0.4,4.4,3.6v25.9
	c0,2.1,2.2,4.1,4.4,4.1h0.5c2.1,0,4.3-2,4.3-4.1v-26.2c0.1-3.7,4.4-3.3,4.4-3.3h9.6c0.7,0,1.2-0.5,1.2-1.2s-0.5-1.2-1.2-1.2H535.4z
	 M566.7,376.9c-1,0-2,0.3-2.6,0.7c-1.4,0.8-2.2,2.4-2.2,4.1v23.2c0,1,0.8,1.8,1.8,1.8s1.8-0.8,1.8-1.8v-10.6c0-2.5,2.5-3.4,3.7-1.4
	c1.1,1.9,6.6,12.3,6.6,12.3c0.5,0.8,0.9,1.2,1.3,1.3c0,0,0,0,0.1,0c0.7,0.3,1.7,0.1,2.6-1.3l5.3-10.4l0.9-1.8
	c0.4-0.6,0.7-1.3,1.8-1.3c1.3,0,1.6,0.8,1.6,2.2v8.5c0,2.4,1.7,4.1,3.8,4.1h0.9c2.1,0,3.5-2,3.5-4.1v-20.9c-0.1-2.1-1.8-3.8-3.9-3.8
	h-1.2c-1.4,0-2.5,0.7-3.2,1.8c-0.2,0.2-0.3,0.5-0.5,0.8l-4,7.9c-0.8,1.6-2.2,4.2-3.2,6.1c-1.3,2.4-2.8,0.4-3.3-0.4
	c-0.3-0.5-1.4-2.3-1.9-3.3l-6-11.6C569.5,377.4,568.1,376.8,566.7,376.9z M600,378.7c0,0.7,0.5,1.2,1.1,1.2h7.3
	c0.6,0.1,1.1,0.7,1.1,1.4l0,0v0.3l-7.6,16.4c-0.3,0.6-0.7,1.3-0.9,1.9c-0.5,1.1-2,3.8-0.7,5.6c0.7,0.9,3.2,0.9,5.3,0.9h16.1
	c0.6,0,1.1-0.5,1.1-1.2c0-0.8-0.5-1.3-1.1-1.3H613h-0.3c-2,0-2.3-0.9-2.6-1.5s0.3-2.3,0.9-3.7c0.6-1.4,6.7-14.6,6.7-14.6
	c0.4-0.8,2-3.7,2.5-4.7c0.1-0.1,0.1-0.2,0.1-0.3c0,0,0,0,0-0.1s0.1-0.3,0.1-0.4c0-0.7-0.5-1.2-1.1-1.2h-18.5
	C600.5,377.4,600,378,600,378.7L600,378.7z"/>
<g>
	<path class="st22" d="M367.7,361.9v50.4l11.1-53C375,359.8,371.3,360.7,367.7,361.9z"/>
	<path class="st22" d="M386.7,358.6l-19,54.7h0.4l25.9-54.4C391.6,358.7,389.1,358.6,386.7,358.6z"/>
	<path class="st22" d="M379.9,353.8h-12.3v7.4c3.6-1.2,7.4-2.1,11.3-2.6L379.9,353.8z"/>
	<path class="st22" d="M394.2,358.4l2.2-4.6h-8.1l-1.5,4.2C389.4,358,391.8,358.1,394.2,358.4z"/>
	<path class="st22" d="M415.3,385.9c0.7,0,1.4-0.7,1.4-1.8l0.4-8.1c0-1.1-1.1-1.8-1.8-1.8c-1.1,0-1.8,0.7-1.8,1.8v8.1
		C413.5,385.2,414.2,385.9,415.3,385.9z"/>
	<path class="st22" d="M433.9,389.7l-2.8-4.9l-2.8,4.9h-6l5.6-9.9l-5.6-9.5h0.3c-6.2-4.6-13.3-8-20.9-10l-6.3,10h9.7l0.4,5.3h-6.7
		v2.5h5.6v5.3h-5.6v6.3h-5.6V374l-12,18.9h3.2l5.3,8.8v-8.8h4.6v17.6h-4.2l-6.3-10.2v10.2h-4.2v-14.9L368,413.3h74.4V396
		c-0.9-2.2-1.9-4.3-3-6.3H433.9z M415.3,370.3c5.3,0,9.9,4.6,9.9,9.9s-4.6,9.5-9.9,9.5c-5.6,0-9.9-4.2-9.9-9.5
		S409.6,370.3,415.3,370.3z M406.5,397.1h-7v2.5h6v3.9h-6v2.8h7v4.2h-11.3v-17.6h11.3V397.1z M419.8,410.5l-2.1-10.2l-2.1,10.2h-4.2
		l-3.9-17.6h4.2l2.1,10.2l2.1-10.2h3.9l2.1,10.2l2.1-10.2h3.9l-4.2,17.6H419.8z M435,399.3c1.8,0.4,2.8,0.7,4.2,1.8
		c0.7,0.7,1.4,2.1,1.4,3.5s-0.7,2.8-1.4,3.9c-1.4,1.4-3.2,2.1-5.3,2.1c-3.9,0-6.3-1.8-7.1-5.3l4.2-1.1c0.4,1.8,1.4,2.5,3.2,2.5
		c1.1,0,1.4-0.7,1.4-1.4c0-1.4-1.1-1.1-2.8-1.8c-3.5-1.1-5.3-2.5-5.3-5.3c0-3.5,2.5-6,6.7-6c2.8,0,4.9,1.8,6,4.6l-3.9,1.1
		c-0.7-1.1-1.4-1.8-2.5-1.8s-1.8,0.7-1.8,1.4C432.2,398.5,433.2,398.5,435,399.3z"/>
	<path class="st22" d="M405.9,353.8l-3.9,6.1c7.9,2,15.2,5.6,21.5,10.5h5.2l2.5,4.2l2.1-4.2h6.3l-5.6,9.2l2.8,4.8
		c2.2,3.2,4.1,6.7,5.7,10.4v-40.9h-36.6V353.8z"/>
	<path class="st23" d="M430.4,419c-0.7,0-1.1,0.4-1.1,1.1h2.5C431.8,419.3,431.5,419,430.4,419z"/>
	<path class="st23" d="M395.5,421.8c0.7,0,1.1,0,1.1-0.7v-0.4h-1.1c-0.7,0.4-1.1,0.4-1.1,0.7S394.8,421.8,395.5,421.8z"/>
	<path class="st23" d="M367.7,424.3h74.7v-9.5h-74.7V424.3z M438.2,416.5h2.5v6.3h-2.5V416.5z M430.4,417.9c2.1,0,3.5,1.1,3.5,2.8
		h-4.6c0,0.7,0.4,1.1,1.1,1.1s1.1,0,1.4-0.4h2.1l0,0l0,0l0,0c-0.4,1.1-1.8,1.4-3.5,1.4c-2.1,0-3.5-0.7-3.5-2.5
		C426.9,419,428.3,417.9,430.4,417.9z M415.6,418.3h2.1v0.7c0.7-0.7,1.4-0.7,2.1-0.7c1.8,0,2.5,0.4,2.5,1.4v3.2h-2.5v-2.5
		c0-0.7,0-1.1-0.7-1.1s-1.1,0.4-1.1,1.1v2.5h-2.5v-4.6H415.6z M404.3,418.3h2.1v0.7c0.4-0.7,1.1-0.7,2.1-0.7c1.4,0,2.1,0.4,2.1,1.4
		v3.2h-2.1v-2.5c0-0.7,0-1.1-1.1-1.1c-0.7,0-1.1,0.4-1.1,1.1v2.5h-2.1v-4.6H404.3z M394.5,420c1.4,0,2.1,0,2.1-0.4s0-0.7-0.7-0.7
		s-1.1,0.4-1.1,0.7h-2.1c0.4-1.1,1.4-1.4,3.2-1.4c1.1,0,2.1,0,2.5,0.4s0.4,1.1,0.4,1.4v1.8c0,0.4,0.4,0.7,0.4,0.7v0.4h-2.1v-0.7
		c-0.7,0.7-1.4,0.7-2.5,0.7s-2.1-0.4-2.1-1.4C392.4,420.8,393.1,420.4,394.5,420z M381.4,416.5h2.1v2.5c0.4-0.7,1.1-0.7,2.1-0.7
		c1.4,0,2.1,0.4,2.1,1.4v3.2h-2.1v-2.5c0-0.7,0-1.1-1.1-1.1c-0.7,0-1.1,0.4-1.1,1.1v2.5h-2.1v-6.4H381.4z M373.3,417.9
		c1.8,0,2.8,0.7,3.2,1.8H374c0-0.4-0.4-0.4-0.7-0.4c-1.1,0-1.4,0.4-1.4,1.1c0,1.1,0.4,1.4,1.4,1.4c0.4,0,0.7-0.4,1.1-0.7h2.1
		c-0.4,1.1-1.4,1.8-3.5,1.8c-1.8,0-3.2-0.7-3.2-2.5C369.8,419,371.2,417.9,373.3,417.9z"/>
	<path class="st23" d="M378.9,358.6c-3.8,0.5-7.6,1.4-11.3,2.6v0.7c3.6-1.2,7.3-2.1,11.1-2.6L378.9,358.6z"/>
	<path class="st23" d="M386.9,358l-0.2,0.7c2.5,0,4.9,0.1,7.3,0.4l0.3-0.6C391.8,358.1,389.4,358,386.9,358z"/>
	<path class="st23" d="M422.6,370.3h0.9c-6.3-4.8-13.6-8.4-21.5-10.5l-0.3,0.5C409.4,362.3,416.4,365.7,422.6,370.3z"/>
	<path class="st23" d="M439.9,389.7h-0.5c1.1,2,2.1,4.2,3,6.3v-1.4c-1.5-3.7-3.4-7.1-5.7-10.4L439.9,389.7z"/>
	<polygon class="st3" points="406.1,353.4 396.6,353.4 396.4,353.8 405.9,353.8 	"/>
	<polygon class="st3" points="388.5,353.4 380,353.4 379.9,353.8 388.4,353.8 	"/>
	<path class="st3" d="M402,359.9l3.9-6.1h-9.5l-2.2,4.6C396.9,358.7,399.5,359.2,402,359.9z"/>
	<path class="st3" d="M379.3,392.9h1.7l12-18.9v-3.6h2.3l6.3-10c-2.5-0.6-5.1-1.1-7.7-1.4L368,413.3l11.3-17.8V392.9z"/>
	<path class="st3" d="M384.2,358c0.9,0,1.8-0.1,2.7-0.1l1.5-4.2H380l-1,4.8C380.7,358.3,382.5,358.1,384.2,358z"/>
	<path class="st3" d="M384.2,358.7c-1.8,0.1-3.6,0.3-5.5,0.6l-11.1,53v1.1l19-54.7C385.9,358.6,385.1,358.7,384.2,358.7z"/>
	<path class="st3" d="M373,422.9c2.1,0,3.2-0.7,3.5-1.8h-2.1c-0.4,0.4-0.7,0.7-1.1,0.7c-1.1,0-1.4-0.4-1.4-1.4
		c0-0.7,0.4-1.1,1.4-1.1c0.4,0,0.7,0,0.7,0.4h2.5c-0.4-1.1-1.4-1.8-3.2-1.8c-2.1,0-3.5,1.1-3.5,2.5
		C369.8,422.2,371.2,422.9,373,422.9z"/>
	<path class="st3" d="M383.5,420.4c0-0.7,0.4-1.1,1.1-1.1c1.1,0,1.1,0.4,1.1,1.1v2.5h2.1v-3.2c0-1.1-0.7-1.4-2.1-1.4
		c-1.1,0-1.8,0-2.1,0.7v-2.5h-2.1v6.3h2.1v-2.4H383.5z"/>
	<path class="st3" d="M430.4,422.9c1.8,0,3.2-0.4,3.5-1.4h-2.1c-0.4,0.4-0.7,0.4-1.4,0.4c-0.7,0-1.1-0.4-1.1-1.1h4.6
		c0-1.8-1.4-2.8-3.5-2.8s-3.5,1.1-3.5,2.5C426.9,422.2,428.3,422.9,430.4,422.9z M430.4,419c1.1,0,1.4,0.4,1.4,1.1h-2.5
		C429.4,419.3,429.7,419,430.4,419z"/>
	<path class="st3" d="M433.9,421.5L433.9,421.5L433.9,421.5z"/>
	<path class="st3" d="M418.1,420.4c0-0.7,0.4-1.1,1.1-1.1s0.7,0.4,0.7,1.1v2.5h2.5v-3.2c0-1.1-0.7-1.4-2.5-1.4c-0.7,0-1.4,0-2.1,0.7
		v-0.7h-2.1v4.6h2.5v-2.5H418.1z"/>
	<path class="st3" d="M406.5,420.4c0-0.7,0.4-1.1,1.1-1.1c1.1,0,1.1,0.4,1.1,1.1v2.5h2.1v-3.2c0-1.1-0.7-1.4-2.1-1.4
		c-1.1,0-1.8,0-2.1,0.7v-0.7h-2.1v4.6h2.1v-2.5H406.5z"/>
	<path class="st3" d="M394.5,422.9c1.1,0,1.8,0,2.5-0.7v0.7h2.1v-0.4c0,0-0.4-0.4-0.4-0.7V420c0-0.4,0-1.1-0.4-1.4
		c-0.4-0.4-1.4-0.4-2.5-0.4c-1.8,0-2.8,0.4-3.2,1.4h2.1c0-0.4,0.4-0.7,1.1-0.7s0.7,0.4,0.7,0.7c0,0.4-0.7,0.4-2.1,0.4
		c-1.4,0.4-2.1,0.7-2.1,1.4C392.4,422.5,393.4,422.9,394.5,422.9z M395.5,420.8h1.1v0.4c0,0.7-0.4,0.7-1.1,0.7s-1.1,0-1.1-0.4
		S394.8,421.1,395.5,420.8z"/>
	<rect x="438.2" y="416.5" class="st3" width="2.5" height="6.3"/>
	<path class="st3" d="M393.9,359c2.6,0.3,5.2,0.8,7.7,1.4l0.3-0.5c-2.5-0.7-5.1-1.2-7.8-1.5L393.9,359z"/>
	<path class="st3" d="M384.2,358c-1.8,0.1-3.5,0.3-5.3,0.5l-0.2,0.7c1.8-0.3,3.6-0.4,5.5-0.6c0.8,0,1.6-0.1,2.4-0.1l0.2-0.7
		C386,358,385.1,358,384.2,358z"/>
	<polygon class="st3" points="393.1,389.7 398.7,389.7 398.7,383.4 404.3,383.4 404.3,378.1 398.7,378.1 398.7,375.6 405.4,375.6 
		405,370.3 395.4,370.3 393.1,374 	"/>
	<path class="st3" d="M422.6,370.3h-0.3l5.6,9.5l-5.6,9.9h6l2.8-4.9l2.8,4.9h5.5C435.3,382.1,429.5,375.5,422.6,370.3z"/>
	<path class="st3" d="M436.8,384.3l-2.8-4.8l5.6-9.2h-6.3l-2.1,4.2l-2.5-4.2h-5.2C428.6,374.2,433.1,379,436.8,384.3z"/>
	<path class="st3" d="M439.4,389.7h0.5l-3.2-5.4c-3.6-5.3-8.1-10-13.2-13.9h-0.9C429.5,375.5,435.3,382.1,439.4,389.7z"/>
	<polygon class="st3" points="393.1,374 395.4,370.3 393.1,370.3 	"/>
	<path class="st3" d="M415.3,389.7c5.3,0,9.9-4.2,9.9-9.5s-4.6-9.9-9.9-9.9c-5.6,0-9.9,4.6-9.9,9.9S409.6,389.7,415.3,389.7z
		 M413.5,376c0-1.1,0.7-1.8,1.8-1.8c0.7,0,1.8,0.7,1.8,1.8l-0.4,8.1c0,1.1-0.7,1.8-1.4,1.8c-1.1,0-1.8-0.7-1.8-1.8V376z"/>
	<path class="st22" d="M435,399.3c1.4,0.4,2.8,0.7,4.2,1.8C437.8,400,436.8,399.6,435,399.3z"/>
	<path class="st3" d="M433.9,396.1c1.1,0,1.8,0.7,2.5,1.8l3.9-1.1c-1.1-2.8-3.2-4.6-6-4.6c-4.2,0-6.7,2.5-6.7,6
		c0,2.8,1.8,4.2,5.3,5.3c1.8,0.7,2.8,0.4,2.8,1.8c0,0.7-0.4,1.4-1.4,1.4c-1.8,0-2.8-0.7-3.2-2.5l-4.2,1.1c0.7,3.5,3.2,5.3,7.1,5.3
		c2.1,0,3.9-0.7,5.3-2.1c0.7-1.1,1.4-2.5,1.4-3.9s-0.7-2.8-1.4-3.5c-1.4-1.1-2.8-1.4-4.2-1.8c-1.8-0.7-2.8-0.7-2.8-1.8
		C432.2,396.8,432.9,396.1,433.9,396.1z"/>
	<polygon class="st3" points="379.3,410.5 383.5,410.5 383.5,400.3 389.9,410.5 394.1,410.5 394.1,392.9 389.5,392.9 389.5,401.7 
		384.2,392.9 381,392.9 379.3,395.6 	"/>
	<polygon class="st3" points="424.1,392.9 422,403.1 419.8,392.9 416,392.9 413.9,403.1 411.7,392.9 407.5,392.9 411.4,410.5 
		415.6,410.5 417.7,400.3 419.8,410.5 423.7,410.5 428,392.9 	"/>
	<polygon class="st3" points="395.2,410.5 406.5,410.5 406.5,406.3 399.4,406.3 399.4,403.5 405.4,403.5 405.4,399.6 399.4,399.6 
		399.4,397.1 406.5,397.1 406.5,392.9 395.2,392.9 	"/>
	<polygon class="st3" points="379.3,395.6 381,392.9 379.3,392.9 	"/>
</g>
<g>
	<path d="M41.4,120.1c1-1.1,2.4-1.6,4-1.6c2.2,0,3.7,0.7,4.7,2.1c0.6,0.8,0.8,1.6,0.9,2.4h-2.7c-0.2-0.6-0.4-1.1-0.7-1.4
		c-0.5-0.6-1.2-0.8-2.1-0.8c-1,0-1.7,0.4-2.3,1.2s-0.8,1.9-0.8,3.4s0.3,2.5,0.9,3.3c0.6,0.7,1.3,1.1,2.2,1.1s1.6-0.3,2.1-0.9
		c0.3-0.3,0.5-0.8,0.7-1.5H51c-0.2,1.4-0.8,2.6-1.8,3.4s-2.2,1.3-3.7,1.3c-1.8,0-3.3-0.6-4.3-1.8c-1.1-1.2-1.6-2.8-1.6-4.9
		C39.6,123.1,40.2,121.4,41.4,120.1z"/>
	<path d="M53.1,118.8h2.8l5.1,9v-9h2.5v13h-2.7l-5.3-9.2v9.2H53v-13H53.1z"/>
	<path d="M66.1,118.8h2.8l5.1,9v-9h2.5v13h-2.7l-5.3-9.2v9.2H66L66.1,118.8L66.1,118.8z"/>
</g>
<g>
	<path d="M191,118.8h2.8l5.1,9v-9h2.5v13h-2.7l-5.3-9.2v9.2H191V118.8z"/>
	<path d="M211.4,118.8h3.1l-4.3,8.1v4.9h-2.7v-4.9l-4.5-8.1h3.2l2.7,5.6L211.4,118.8z"/>
	<path d="M230.1,118.8v2.3h-3.9v10.7h-2.7v-10.7h-3.9v-2.3H230.1z"/>
	<path d="M234.2,131.7h-2.7v-13h2.7V131.7z"/>
	<path d="M245.3,118.8h3.9v13h-2.5V123c0-0.3,0-0.6,0-1.1s0-0.8,0-1.1l-2.5,10.9h-2.6l-2.4-10.9c0,0.2,0,0.6,0,1.1s0,0.8,0,1.1v8.8
		h-2.5v-13h3.9L243,129L245.3,118.8z"/>
	<path d="M261.3,121.1h-6.9v2.8h6.3v2.2h-6.3v3.3h7.2v2.3h-9.8v-13h9.5V121.1z"/>
	<path d="M265.7,127.7c0.1,0.6,0.2,1,0.5,1.3c0.4,0.5,1.2,0.8,2.3,0.8c0.7,0,1.2-0.1,1.6-0.2c0.8-0.3,1.2-0.8,1.2-1.5
		c0-0.4-0.2-0.8-0.6-1s-1-0.4-1.8-0.6l-1.4-0.3c-1.4-0.3-2.3-0.6-2.8-1c-0.9-0.6-1.3-1.5-1.3-2.8c0-1.2,0.4-2.1,1.3-2.9
		s2.1-1.2,3.8-1.2c1.4,0,2.6,0.4,3.5,1.1s1.5,1.8,1.5,3.2h-2.6c0-0.8-0.4-1.3-1-1.7c-0.4-0.2-1-0.3-1.6-0.3c-0.7,0-1.3,0.1-1.7,0.4
		s-0.6,0.7-0.6,1.2s0.2,0.8,0.6,1c0.3,0.2,0.8,0.3,1.7,0.5l2.3,0.5c1,0.2,1.7,0.5,2.2,0.9c0.8,0.6,1.2,1.5,1.2,2.6
		c0,1.2-0.5,2.2-1.4,2.9s-2.2,1.2-3.9,1.2c-1.7,0-3-0.4-4-1.2s-1.5-1.8-1.5-3.2h2.5V127.7z"/>
</g>
<g>
	<path d="M363.5,121.1h-6.9v2.8h6.3v2.2h-6.3v3.3h7.2v2.3H354v-13h9.5V121.1z"/>
	<path d="M365.9,118.8h2.8v8c0,0.9,0.1,1.5,0.3,1.9c0.3,0.7,1,1.1,2.1,1.1s1.8-0.4,2.1-1.1c0.2-0.4,0.3-1.1,0.3-1.9v-8h2.8v8
		c0,1.4-0.2,2.4-0.6,3.2c-0.8,1.4-2.3,2.1-4.6,2.1s-3.8-0.7-4.6-2.1c-0.4-0.8-0.6-1.8-0.6-3.2L365.9,118.8L365.9,118.8z"/>
	<path d="M387.2,119.1c0.5,0.2,0.9,0.5,1.2,0.9c0.3,0.3,0.5,0.7,0.7,1.1s0.2,0.9,0.2,1.4c0,0.6-0.2,1.2-0.5,1.8s-0.8,1-1.5,1.3
		c0.6,0.2,1,0.6,1.3,1s0.4,1.1,0.4,2v0.9c0,0.6,0,1,0.1,1.2c0.1,0.3,0.2,0.6,0.5,0.7v0.3h-3c-0.1-0.3-0.1-0.5-0.2-0.7
		c-0.1-0.4-0.1-0.7-0.1-1.1v-1.2c0-0.8-0.2-1.4-0.4-1.7s-0.8-0.4-1.5-0.4h-2.6v5.1H379v-13h6.2C386,118.8,386.7,118.9,387.2,119.1z
		 M381.6,121v3.5h2.9c0.6,0,1-0.1,1.3-0.2c0.5-0.2,0.8-0.7,0.8-1.5s-0.2-1.3-0.7-1.6c-0.3-0.2-0.7-0.2-1.3-0.2
		C384.6,121,381.6,121,381.6,121z"/>
	<path d="M401.9,130.6c-1,1-2.4,1.5-4.2,1.5s-3.3-0.5-4.2-1.5c-1.3-1.2-2-3-2-5.3c0-2.4,0.7-4.2,2-5.3c1-1,2.4-1.5,4.2-1.5
		s3.3,0.5,4.2,1.5c1.3,1.2,2,3,2,5.3C403.8,127.6,403.2,129.3,401.9,130.6z M400.2,128.6c0.6-0.8,0.9-1.9,0.9-3.4s-0.3-2.6-0.9-3.4
		s-1.5-1.2-2.6-1.2s-1.9,0.4-2.6,1.2s-1,1.9-1,3.4s0.3,2.6,1,3.4c0.6,0.8,1.5,1.2,2.6,1.2S399.5,129.4,400.2,128.6z"/>
	<path d="M405.8,118.8h2.8l5.1,9v-9h2.5v13h-2.7l-5.3-9.2v9.2h-2.5v-13H405.8z"/>
	<path d="M428.5,121.1h-6.9v2.8h6.3v2.2h-6.3v3.3h7.2v2.3H419v-13h9.5V121.1z"/>
	<path d="M432.7,118.8l1.7,7.4l0.4,2.1l0.4-2l1.5-7.5h2.9l1.5,7.4l0.4,2.1l0.4-2l1.7-7.5h2.8l-3.6,13H440l-1.6-7.6l-0.5-2.5
		l-0.5,2.5l-1.6,7.6h-2.5l-3.7-13H432.7z"/>
	<path d="M449.8,127.7c0.1,0.6,0.2,1,0.5,1.3c0.4,0.5,1.2,0.8,2.3,0.8c0.7,0,1.2-0.1,1.6-0.2c0.8-0.3,1.2-0.8,1.2-1.5
		c0-0.4-0.2-0.8-0.6-1s-1-0.4-1.8-0.6l-1.4-0.3c-1.4-0.3-2.3-0.6-2.8-1c-0.9-0.6-1.3-1.5-1.3-2.8c0-1.2,0.4-2.1,1.3-2.9
		s2.1-1.2,3.8-1.2c1.4,0,2.6,0.4,3.5,1.1c1,0.7,1.5,1.8,1.5,3.2H455c0-0.8-0.4-1.3-1-1.7c-0.4-0.2-1-0.3-1.6-0.3
		c-0.7,0-1.3,0.1-1.7,0.4s-0.6,0.7-0.6,1.2s0.2,0.8,0.6,1c0.3,0.2,0.8,0.3,1.7,0.5l2.3,0.5c1,0.2,1.7,0.5,2.2,0.9
		c0.8,0.6,1.2,1.5,1.2,2.6c0,1.2-0.5,2.2-1.4,2.9s-2.2,1.2-3.9,1.2c-1.7,0-3-0.4-4-1.2s-1.5-1.8-1.5-3.2h2.5V127.7z"/>
</g>
<g>
	<path d="M565.3,121.1h-6.9v2.8h6.3v2.2h-6.3v3.3h7.2v2.3h-9.8v-13h9.5V121.1z"/>
	<path d="M569.7,127.7c0.1,0.6,0.2,1,0.5,1.3c0.4,0.5,1.2,0.8,2.3,0.8c0.7,0,1.2-0.1,1.6-0.2c0.8-0.3,1.2-0.8,1.2-1.5
		c0-0.4-0.2-0.8-0.6-1c-0.4-0.2-1-0.4-1.8-0.6l-1.4-0.3c-1.4-0.3-2.3-0.6-2.8-1c-0.9-0.6-1.3-1.5-1.3-2.8c0-1.2,0.4-2.1,1.3-2.9
		c0.9-0.8,2.1-1.2,3.8-1.2c1.4,0,2.6,0.4,3.5,1.1s1.5,1.8,1.5,3.2h-2.6c0-0.8-0.4-1.3-1-1.7c-0.4-0.2-1-0.3-1.6-0.3
		c-0.7,0-1.3,0.1-1.7,0.4s-0.6,0.7-0.6,1.2s0.2,0.8,0.6,1c0.3,0.2,0.8,0.3,1.7,0.5l2.3,0.5c1,0.2,1.7,0.5,2.2,0.9
		c0.8,0.6,1.2,1.5,1.2,2.6c0,1.2-0.5,2.2-1.4,2.9s-2.2,1.2-3.9,1.2s-3-0.4-4-1.2s-1.5-1.8-1.5-3.2h2.5V127.7z"/>
	<path d="M588.5,126.1c-0.8,0.6-1.8,0.9-3.2,0.9h-2.7v4.7h-2.7v-13h5.6c1.3,0,2.3,0.3,3.1,1s1.1,1.7,1.1,3.1
		C589.6,124.4,589.2,125.5,588.5,126.1z M586.4,121.5c-0.3-0.3-0.8-0.4-1.4-0.4h-2.4v3.8h2.4c0.6,0,1.1-0.2,1.4-0.5s0.5-0.8,0.5-1.5
		S586.7,121.8,586.4,121.5z"/>
	<path d="M591.7,118.8h2.8l5.1,9v-9h2.5v13h-2.7l-5.3-9.2v9.2h-2.5v-13H591.7z"/>
</g>
<g>
	<path d="M36.7,288.4h3.9v13H38v-8.8c0-0.3,0-0.6,0-1.1s0-0.8,0-1l-2.5,10.9H33l-2.4-10.9c0,0.2,0,0.6,0,1s0,0.8,0,1.1v8.8H28v-13h4
		l2.4,10.2L36.7,288.4z"/>
	<path d="M45,297.3c0.1,0.6,0.2,1,0.5,1.3c0.4,0.5,1.2,0.8,2.3,0.8c0.7,0,1.2-0.1,1.6-0.2c0.8-0.3,1.2-0.8,1.2-1.5
		c0-0.4-0.2-0.8-0.6-1c-0.4-0.2-1-0.4-1.8-0.6l-1.4-0.3c-1.4-0.3-2.3-0.6-2.8-1c-0.9-0.6-1.3-1.5-1.3-2.8c0-1.2,0.4-2.1,1.3-2.9
		c0.9-0.8,2.1-1.2,3.8-1.2c1.4,0,2.6,0.4,3.5,1.1c1,0.7,1.5,1.8,1.5,3.2h-2.6c0-0.8-0.4-1.3-1-1.7c-0.4-0.2-1-0.3-1.6-0.3
		c-0.7,0-1.3,0.1-1.7,0.4s-0.6,0.7-0.6,1.2s0.2,0.8,0.6,1c0.3,0.2,0.8,0.3,1.7,0.5l2.3,0.5c1,0.2,1.7,0.5,2.2,0.9
		c0.8,0.6,1.2,1.5,1.2,2.6c0,1.2-0.5,2.2-1.4,2.9s-2.2,1.2-3.9,1.2s-3-0.4-4-1.2c-1-0.8-1.5-1.8-1.5-3.2H45V297.3z"/>
	<path d="M55,288.4h2.8l5.1,9v-9h2.5v13h-2.7l-5.3-9.2v9.2H55V288.4z"/>
	<path d="M77.7,289.8c0.4,0.6,0.6,1.2,0.6,2s-0.2,1.4-0.6,1.9c-0.2,0.3-0.6,0.5-1,0.7c0.7,0.2,1.2,0.6,1.5,1.1s0.5,1.2,0.5,1.9
		c0,0.8-0.2,1.5-0.6,2.1c-0.2,0.4-0.6,0.7-0.9,1c-0.4,0.3-0.9,0.5-1.5,0.7c-0.6,0.1-1.2,0.2-1.8,0.2h-5.8v-13h6.3
		C76,288.4,77.1,288.9,77.7,289.8z M70.7,290.6v2.9h3.1c0.6,0,1-0.1,1.4-0.3c0.4-0.2,0.5-0.6,0.5-1.1c0-0.6-0.2-1-0.7-1.2
		c-0.4-0.1-0.9-0.2-1.5-0.2L70.7,290.6L70.7,290.6z M70.7,295.6v3.5h3.1c0.6,0,1-0.1,1.3-0.2c0.6-0.3,0.9-0.8,0.9-1.6
		c0-0.7-0.3-1.1-0.8-1.4c-0.3-0.1-0.7-0.2-1.3-0.2L70.7,295.6L70.7,295.6z"/>
	<path d="M82.3,289.7c1-1.1,2.4-1.6,4-1.6c2.2,0,3.7,0.7,4.7,2.1c0.6,0.8,0.8,1.6,0.9,2.4h-2.7c-0.2-0.6-0.4-1.1-0.7-1.4
		c-0.5-0.6-1.2-0.8-2.1-0.8c-1,0-1.7,0.4-2.3,1.2s-0.8,1.9-0.8,3.4s0.3,2.5,0.9,3.3s1.3,1.1,2.2,1.1c0.9,0,1.6-0.3,2.1-0.9
		c0.3-0.3,0.5-0.8,0.7-1.5h2.7c-0.2,1.4-0.8,2.6-1.8,3.4s-2.2,1.3-3.7,1.3c-1.8,0-3.3-0.6-4.3-1.8c-1.1-1.2-1.6-2.8-1.6-4.9
		C80.5,292.7,81.1,291,82.3,289.7z"/>
</g>
<g>
	<path d="M186.9,297.3c0.1,0.6,0.2,1,0.5,1.3c0.4,0.5,1.2,0.8,2.3,0.8c0.7,0,1.2-0.1,1.6-0.2c0.8-0.3,1.2-0.8,1.2-1.5
		c0-0.4-0.2-0.8-0.6-1c-0.4-0.2-1-0.4-1.8-0.6l-1.4-0.3c-1.4-0.3-2.3-0.6-2.8-1c-0.9-0.6-1.3-1.5-1.3-2.8c0-1.2,0.4-2.1,1.3-2.9
		s2.1-1.2,3.8-1.2c1.4,0,2.6,0.4,3.5,1.1c1,0.7,1.5,1.8,1.5,3.2h-2.6c0-0.8-0.4-1.3-1-1.7c-0.4-0.2-1-0.3-1.6-0.3
		c-0.7,0-1.3,0.1-1.7,0.4s-0.6,0.7-0.6,1.2s0.2,0.8,0.6,1c0.3,0.2,0.8,0.3,1.7,0.5l2.3,0.5c1,0.2,1.7,0.5,2.2,0.9
		c0.8,0.6,1.2,1.5,1.2,2.6c0,1.2-0.5,2.2-1.4,2.9s-2.2,1.2-3.9,1.2s-3-0.4-4-1.2s-1.5-1.8-1.5-3.2h2.5V297.3z"/>
	<path d="M197,288.4h2.7v5.3l5-5.3h3.5l-5.3,5.3l5.6,7.6H205l-4-5.7l-1.3,1.3v4.3H197V288.4z"/>
	<path d="M217.4,288.4h3.1l-4.3,8.1v4.9h-2.7v-4.9l-4.5-8.1h3.2l2.7,5.6L217.4,288.4z"/>
	<path d="M226.6,288.4h2.8l5.1,9v-9h2.5v13h-2.7l-5.3-9.2v9.2h-2.5L226.6,288.4L226.6,288.4z"/>
	<path d="M249.2,290.7h-6.9v2.8h6.3v2.2h-6.3v3.3h7.2v2.3h-9.8v-13h9.5V290.7z"/>
	<path d="M253.4,288.4l1.7,7.4l0.4,2.1l0.4-2l1.5-7.5h2.9l1.5,7.4l0.4,2.1l0.4-2l1.7-7.5h2.8l-3.6,13h-2.6l-1.6-7.6l-0.5-2.5
		l-0.5,2.5l-1.6,7.6h-2.5l-3.7-13H253.4z"/>
	<path d="M270.6,297.3c0.1,0.6,0.2,1,0.5,1.3c0.4,0.5,1.2,0.8,2.3,0.8c0.7,0,1.2-0.1,1.6-0.2c0.8-0.3,1.2-0.8,1.2-1.5
		c0-0.4-0.2-0.8-0.6-1s-1-0.4-1.8-0.6l-1.4-0.3c-1.4-0.3-2.3-0.6-2.8-1c-0.9-0.6-1.3-1.5-1.3-2.8c0-1.2,0.4-2.1,1.3-2.9
		s2.1-1.2,3.8-1.2c1.4,0,2.6,0.4,3.5,1.1c1,0.7,1.5,1.8,1.5,3.2h-2.6c0-0.8-0.4-1.3-1-1.7c-0.4-0.2-1-0.3-1.6-0.3
		c-0.7,0-1.3,0.1-1.7,0.4s-0.6,0.7-0.6,1.2s0.2,0.8,0.6,1c0.3,0.2,0.8,0.3,1.7,0.5l2.3,0.5c1,0.2,1.7,0.5,2.2,0.9
		c0.8,0.6,1.2,1.5,1.2,2.6c0,1.2-0.5,2.2-1.4,2.9s-2.2,1.2-3.9,1.2c-1.7,0-3-0.4-4-1.2s-1.5-1.8-1.5-3.2h2.5V297.3z"/>
</g>
<g id="providers-list_5_">
	<g id="bbc_1_">
		<path id="Rectangle-9_4_" class="st24" d="M546.8,184h64c2.2,0,4,1.8,4,4v64c0,2.2-1.8,4-4,4h-64c-2.2,0-4-1.8-4-4v-64
			C542.8,185.8,544.6,184,546.8,184z"/>
		<path id="Carrés_1_" class="st1" d="M548.8,211H567v18h-18.1v-18H548.8z M569.8,229v-18h18.1v18H569.8z M590.7,229v-18h18.1v18
			H590.7z M580.9,219.6c0,0,1.6-0.7,1.6-2.6c0,0,0.2-3.1-3.6-3.5h-4.3v12.9h4.9c0,0,4.1,0,4.1-3.7
			C583.6,222.9,583.7,220.4,580.9,219.6L580.9,219.6z M576.7,215.6h1.8c1.8,0.1,1.8,1.5,1.8,1.5c0,1.8-2,1.8-2,1.8h-1.5L576.7,215.6
			L576.7,215.6z M581.4,222.7c0,2-2.3,1.8-2.3,1.8h-2.3V221h2.3C581.4,221,581.4,222.7,581.4,222.7z M560,219.6c0,0,1.6-0.7,1.6-2.6
			c0,0,0.2-3.1-3.6-3.5h-4.3v12.9h4.9c0,0,4.1,0,4.1-3.7C562.7,222.9,562.8,220.4,560,219.6L560,219.6z M555.8,215.6h1.8
			c1.8,0.1,1.8,1.5,1.8,1.5c0,1.8-2,1.8-2,1.8h-1.5L555.8,215.6L555.8,215.6z M560.4,222.7c0,2-2.3,1.8-2.3,1.8h-2.3V221h2.3
			C560.5,221,560.4,222.7,560.4,222.7z M605.1,214.5c-2-0.9-3.4-1-3.4-1c-2.3-0.2-3.6,0.3-3.6,0.3c-4.8,1.6-4.7,6.3-4.7,6.3
			c0.1,4.6,3.8,6,3.8,6c4.3,1.8,8.1-0.5,8.1-0.5V223c-2.8,1.9-4.8,1.6-4.8,1.6c-4.9-0.2-4.7-4.6-4.7-4.6c0.2-4.7,4.8-4.6,4.8-4.6
			c2.5,0,4.7,1.5,4.7,1.5L605.1,214.5L605.1,214.5z"/>
	</g>
</g>
<g>
	<path d="M569.5,287.9c0.4,0.6,0.6,1.2,0.6,2s-0.2,1.4-0.6,1.9c-0.2,0.3-0.6,0.5-1,0.7c0.7,0.2,1.2,0.6,1.5,1.1s0.5,1.2,0.5,1.9
		c0,0.8-0.2,1.5-0.6,2.1c-0.2,0.4-0.6,0.7-0.9,1c-0.4,0.3-0.9,0.5-1.5,0.7s-1.2,0.2-1.8,0.2h-5.8v-13h6.3
		C567.8,286.6,568.9,287,569.5,287.9z M562.5,288.8v2.9h3.1c0.6,0,1-0.1,1.4-0.3c0.4-0.2,0.5-0.6,0.5-1.1c0-0.6-0.2-1-0.7-1.2
		c-0.4-0.1-0.9-0.2-1.5-0.2L562.5,288.8L562.5,288.8z M562.5,293.8v3.5h3.1c0.6,0,1-0.1,1.3-0.2c0.6-0.3,0.9-0.8,0.9-1.6
		c0-0.7-0.3-1.1-0.8-1.4c-0.3-0.1-0.7-0.2-1.3-0.2L562.5,293.8L562.5,293.8z"/>
	<path d="M582.5,287.9c0.4,0.6,0.6,1.2,0.6,2s-0.2,1.4-0.6,1.9c-0.2,0.3-0.6,0.5-1,0.7c0.7,0.2,1.2,0.6,1.5,1.1s0.5,1.2,0.5,1.9
		c0,0.8-0.2,1.5-0.6,2.1c-0.2,0.4-0.6,0.7-0.9,1c-0.4,0.3-0.9,0.5-1.5,0.7s-1.2,0.2-1.8,0.2h-5.8v-13h6.3
		C580.8,286.6,581.9,287,582.5,287.9z M575.5,288.8v2.9h3.1c0.6,0,1-0.1,1.4-0.3c0.4-0.2,0.5-0.6,0.5-1.1c0-0.6-0.2-1-0.7-1.2
		c-0.4-0.1-0.9-0.2-1.5-0.2L575.5,288.8L575.5,288.8z M575.5,293.8v3.5h3.1c0.6,0,1-0.1,1.3-0.2c0.6-0.3,0.9-0.8,0.9-1.6
		c0-0.7-0.3-1.1-0.8-1.4c-0.3-0.1-0.7-0.2-1.3-0.2L575.5,293.8L575.5,293.8z"/>
	<path d="M587.1,287.9c1-1.1,2.4-1.6,4-1.6c2.2,0,3.7,0.7,4.7,2.1c0.6,0.8,0.8,1.6,0.9,2.4H594c-0.2-0.6-0.4-1.1-0.7-1.4
		c-0.5-0.6-1.2-0.8-2.1-0.8c-1,0-1.7,0.4-2.3,1.2s-0.8,1.9-0.8,3.4s0.3,2.5,0.9,3.3c0.6,0.7,1.3,1.1,2.2,1.1s1.6-0.3,2.1-0.9
		c0.3-0.3,0.5-0.8,0.7-1.5h2.7c-0.2,1.4-0.8,2.6-1.8,3.4c-1,0.9-2.2,1.3-3.7,1.3c-1.8,0-3.3-0.6-4.3-1.8c-1.1-1.2-1.6-2.8-1.6-4.9
		C585.3,290.9,585.9,289.1,587.1,287.9z"/>
</g>
<g id="providers-list_6_">
	<g id="aljazeera_1_">
		<path id="Path_1_" class="st25" d="M373.7,184h64c2.2,0,4,1.8,4,4v64c0,2.2-1.8,4-4,4h-64c-2.2,0-4-1.8-4-4v-64
			C369.7,185.8,371.5,184,373.7,184z"/>
		<path id="path3297_1_" class="st1" d="M404,247.8c-1.7-0.6-3.4-2.1-4.6-4.3c-0.3-0.5-0.5-1-0.5-1c0-0.1,0.8-0.6,0.9-0.5
			c0,0.1,0.2,0.4,0.5,0.8c2,3.1,4.7,3.4,6,0.7c0.4-0.7,0.5-1.4,0.7-3c0.3-2.2,0.8-4.9,1-5.6c0.6-2.1,1.8-3.7,4.9-6.6
			c2.7-2.4,4-4.4,4.1-6.1c0-0.3,0-0.6,0-0.6s-0.3,0.2-0.6,0.5c-0.3,0.3-1.1,0.8-1.7,1.3c-1.5,1.1-2.2,1.7-2.6,2.3
			c-0.2,0.3-0.4,0.5-0.5,0.5c0,0-0.2-0.5-0.4-1.1c-0.3-0.8-0.4-1.2-0.4-1.7c0-0.7,0.1-1,0.9-1.9c1-1.1,1.4-2.4,1.4-3.8
			c0-1.4-0.6-2.7-2.5-4.9c-0.8-1-3.3-3.5-3.4-3.5c0,0-0.1,0.6,0,1.2c0,2.8-0.5,5-2.1,8.1c-1,2-1.2,2.5-1.7,3.7
			c-0.4,1.3-0.6,2-0.6,3.2l-0.1,1.1l-0.4,0.4c-0.2,0.2-0.4,0.3-0.4,0.3c-0.1-0.1-0.2-1.8-0.2-2.9c0.1-2,0.6-3.8,1.8-6.5
			c2.3-5.1,2.9-7,2.7-8.8c0-0.8-0.1-1-0.9-3c-0.7-1.7-0.5-3.4,0.6-4.9c0.3-0.4,0.3-0.5,0.2-0.7c0-0.1-0.3-0.6-0.4-1
			c-0.6-1.3-0.7-2-0.8-3.4c0-1.4,0.1-1.9,0.5-2.8c0.4-0.8,1.4-1.6,1.9-1.6c0.4,0,0.3,0.1-0.2,0.5c-1,0.8-1.4,2.1-1,3.7
			c0.4,1.7,1.1,2.9,3.5,5.8c5.7,6.9,8.6,10.9,10.8,15.2c1.4,2.7,2,4.2,2.6,6.4c0.6,2.3,0.8,4.3,0.6,6.3c-0.4,4.3-2.2,7.3-5.3,8.8
			c-2.1,1-4.9,1.2-7.4,0.5c-0.9-0.3-0.9-0.2-0.7-1.4c0.2-1.2,0.4-1.7,0.5-1.7s0.5,0.1,1,0.2c2,0.4,4.2-0.1,5.9-1.2
			c0.5-0.3,1.5-1.3,2-1.8c0.8-1,1.5-2.3,1.8-3.8c0.3-1.1,0.4-3.3,0.2-4.4c-0.1-0.9-0.6-2.4-1.1-3.6c-1.8-4.3-5-8.9-11.9-17.2
			c-0.4-0.5-0.8-1.1-1.3-1.6c-0.4-0.5-0.7-0.9-0.8-0.9c-0.1,0-0.5,0.7-0.7,1.1c-0.1,0.3-0.1,0.6-0.1,1.1c0.1,1.3,0.6,2.1,3.4,4.9
			c1.7,1.7,2.6,2.8,3.5,4.1c1.6,2.3,2.1,4.6,1.6,6.5c-0.1,0.2-0.1,0.4-0.1,0.4c0.1,0.1,1.8-1.4,2.3-2c0.2-0.2,0.3-0.4,0.4-0.3
			c0.1,0.1,0.7,2.2,0.9,3.4c0.3,1.5,0.4,2.6,0.3,3.7c-0.1,1.1-0.2,1.7-0.8,2.8c-0.6,1.1-1.4,2.1-3.7,4.4c-2.3,2.3-3.1,3.3-3.4,4
			s-0.6,2.6-0.8,4.5c-0.3,2.8-0.6,4.7-0.8,5.4c-0.3,1-0.9,1.7-1.7,2.1c-0.5,0.2-0.7,0.3-1.4,0.3C404.8,248,404.6,248,404,247.8
			L404,247.8z M412.8,244.3c-0.7-0.3-1.1-1-1.6-2.4c-0.2-0.5-0.2-0.7-0.1-0.8c0.2-0.1,0.3,0,0.5,0.6c0.3,0.7,0.5,1.1,0.8,1.3
			c0.2,0.1,0.3,0.1,0.5,0s0.3-0.2,0.3-0.4c0.1-0.6,0.4-0.3,0.7,0.6c0.2,0.6,0.2,0.7-0.1,1C413.4,244.5,413.3,244.6,412.8,244.3z
			 M400.4,206.2c0-0.9,0.7-1.7,1.9-1.7c0.5,0,0.9,0.2,1.3,0.6c0.7,0.7,1,2.1,1.1,4.5c0.1,2.9-0.2,4.1-2.1,7.8
			c-2.1,4.1-2.9,6.2-3.7,8.9c-1,3.8-1.2,7.4-0.7,10.8l0.2,0.9l-0.3,0.3c-0.2,0.2-0.3,0.3-0.4,0.2s-0.5-2.7-0.6-4.3
			c-0.1-1.8-0.1-4.7,0.1-6c0.3-2.2,0.8-4.2,1.7-6.4c0.7-1.8,1.1-2.7,2.4-5.4c1.6-3.2,2.3-5,2.2-5.6c0-0.2-0.1-0.1-0.3,0.2
			c-0.6,0.8-1.6,1.6-3.9,3.1c-3,1.9-4.4,2.9-5.7,4.2c-1.9,1.9-2.9,3.6-3.4,5.9c-0.1,0.6-0.2,1.2-0.2,2c0,1.2,0.2,2.2,0.3,2.2
			c0,0,0.2-0.3,0.3-0.6c0.3-0.7,0.8-1.4,1.3-1.7c0.6-0.3,1.3-0.3,1.8-0.1c1.4,0.7,2.7,3.4,2.7,5.7c0,1.1-0.3,1.9-0.8,2.4
			c-0.4,0.3-0.6,0.4-1.4,0.4s-1.5-0.4-2.4-1.2l-0.7-0.6l0.1,1c0.1,2.5,1.2,4.7,2.7,5.4s3.3,0.4,4.5-0.7c1.2-1.2,2-3.3,2.6-7.3
			c0.3-2.3,0.5-2.7,1.5-3.6c1.5-1.3,2.7-2.3,3-2.8c0.2-0.3,0.4-0.5,0.5-0.5c0.1,0.1,0.4,2.5,0.4,2.9c0,0.7-0.4,1.1-2.1,2.7
			c-1.1,1-1.7,1.6-1.8,1.7c-0.1,0.1-0.2,0.9-0.2,1.7c-0.6,6.2-1.9,8.6-4.8,8.8c-0.2,0-0.7,0-1,0c-1.2-0.1-2.2-0.6-3.2-1.6
			c-2-1.9-3-4.5-3.1-8.2c-0.1-1.4-0.1-1.5-0.4-2.3c-1.1-2.9-1.4-5.4-0.7-8c0.5-1.9,1.6-3.7,3.2-5.2c1.3-1.2,2.5-2,6-4
			c2.6-1.5,3.3-2,4.2-2.9c0.7-0.8,1-1.4,1.1-2.1v-0.6l-0.2,0.2c-0.3,0.3-0.7,0.4-1.1,0.4C401.2,207.9,400.4,207.1,400.4,206.2z
			 M393.8,229c0.2,0,0.3,0,0.5,0.1c0.3,0.2,0.8,0.8,0.8,1.1c0,0.1-0.1,0.4-0.3,0.7c-0.2,0.3-0.4,0.5-0.7,0.7c-0.6,0.3-1.3,0.3-2,0
			s-0.7-0.4-0.4-1C392.2,229.6,393.1,228.9,393.8,229z M406.4,236.5c-1.1-1-2.2-2.5-3-4.1l-0.3-0.7l0.4-0.4c0.2-0.2,0.4-0.4,0.5-0.4
			s0.3,0.2,0.4,0.5c0.4,0.6,1.9,2.1,2.7,2.7c0.5,0.4,0.6,0.5,0.5,0.7c0,0.1-0.2,0.6-0.3,1.2c-0.1,0.5-0.2,1-0.2,1
			C407,237.1,406.7,236.8,406.4,236.5z M394.5,223.3c-0.3-0.3-0.4-0.7-0.3-1.5c0.1-0.4,0.2-0.8,0.4-1.2c0.6-1.1,2.4-2.6,2.4-2
			c0,0-0.4,0.4-0.8,0.9c-1.2,1.2-1.6,2.1-1.2,2.6c0.3,0.4,0.9,0.3,0.9-0.2c0-0.2,0.3-0.6,0.4-0.5s0.1,0.4,0,0.8
			C395.9,223.4,395.1,223.9,394.5,223.3L394.5,223.3z M406.7,222.1c-0.2-0.8-0.2-0.9,2-3.1c0.9-0.9,1.7-1.8,1.9-2
			c0.3-0.4,0.3-0.3,0.4,0.3c0.1,0.3,0,0.4-0.1,0.7c-0.1,0.2-0.9,1.1-1.8,2s-1.8,1.9-1.9,2.1c-0.2,0.2-0.3,0.4-0.4,0.4
			C406.8,222.4,406.7,222.3,406.7,222.1z M401.6,209.1c0,0.9-0.8,1.7-1.8,1.7s-1.8-0.8-1.8-1.7s0.8-1.7,1.8-1.7
			C400.8,207.4,401.6,208.1,401.6,209.1L401.6,209.1z M408.5,226.4l2.3,1.1l-1.2,2.5l-2.3-1.1L408.5,226.4L408.5,226.4z M416,231
			l2.3,1.1l-1.2,2.5l-2.3-1.1L416,231z M404.3,236.7l1.9,1.6l-1.8,2.2l-1.9-1.6L404.3,236.7z M403.8,240.5l1.9,1.6l-1.8,2.2
			l-1.9-1.6L403.8,240.5z"/>
	</g>
</g>
<g>
	<path d="M356.1,287.1h3.1l4.6,13h-2.9l-0.9-2.7h-4.8l-0.9,2.7h-2.8L356.1,287.1z M355.9,295.2h3.3l-1.6-5.1L355.9,295.2z"/>
	<path d="M365.4,287.1h2.7v10.6h6.5v2.3h-9.2V287.1z"/>
	<path d="M378,295.2v0.3c0,1,0.1,1.7,0.3,2.1s0.6,0.6,1.2,0.6s1-0.2,1.2-0.7c0.1-0.3,0.2-0.7,0.2-1.3v-9.1h2.7v9
		c0,1.1-0.2,2-0.6,2.6c-0.6,1.1-1.8,1.6-3.4,1.6s-2.7-0.4-3.3-1.3c-0.6-0.9-0.8-2.1-0.8-3.6v-0.3L378,295.2L378,295.2z"/>
	<path d="M390.1,287.1h3.1l4.6,13h-2.9l-0.9-2.7h-4.8l-0.9,2.7h-2.8L390.1,287.1z M390,295.2h3.3l-1.6-5.1L390,295.2z"/>
	<path d="M398.5,297.8l6.6-8.4h-6.5v-2.3h9.8v2.2l-6.7,8.5h6.7v2.3h-10v-2.3H398.5z"/>
	<path d="M420,289.4h-6.9v2.8h6.3v2.2h-6.3v3.3h7.2v2.3h-9.8v-13h9.5L420,289.4L420,289.4z"/>
	<path d="M432,289.4h-6.9v2.8h6.3v2.2h-6.3v3.3h7.2v2.3h-9.8v-13h9.5L432,289.4L432,289.4z"/>
	<path d="M442.7,287.4c0.5,0.2,0.9,0.5,1.2,0.9c0.3,0.3,0.5,0.7,0.7,1.1s0.2,0.9,0.2,1.4c0,0.6-0.2,1.2-0.5,1.8s-0.8,1-1.5,1.3
		c0.6,0.2,1,0.6,1.3,1s0.4,1.1,0.4,2v0.9c0,0.6,0,1,0.1,1.2c0.1,0.3,0.2,0.6,0.5,0.7v0.3h-3c-0.1-0.3-0.1-0.5-0.2-0.7
		c-0.1-0.4-0.1-0.7-0.1-1.1V297c0-0.8-0.2-1.4-0.4-1.7s-0.8-0.4-1.5-0.4h-2.6v5.1h-2.6v-13h6.2C441.6,287.1,442.3,287.2,442.7,287.4
		z M437.1,289.4v3.5h2.9c0.6,0,1-0.1,1.3-0.2c0.5-0.2,0.8-0.7,0.8-1.5s-0.2-1.3-0.7-1.6c-0.3-0.2-0.7-0.2-1.3-0.2L437.1,289.4
		L437.1,289.4z"/>
	<path d="M451.1,287.1h3.1l4.6,13h-2.9l-0.9-2.7h-4.8l-0.9,2.7h-2.8L451.1,287.1z M451,295.2h3.3l-1.6-5.1L451,295.2z"/>
</g>
<g>
	<path d="M20.2,459.1c-0.2-0.9-0.7-1.5-1.5-1.9c-0.4-0.2-0.9-0.3-1.5-0.3c-1,0-1.9,0.4-2.6,1.2c-0.7,0.8-1,2-1,3.5
		c0,1.6,0.4,2.7,1.1,3.4c0.7,0.7,1.6,1,2.5,1s1.7-0.3,2.2-0.8c0.6-0.5,0.9-1.2,1.1-2h-3V461H23v7h-1.8l-0.3-1.6
		c-0.5,0.6-1,1-1.4,1.3c-0.7,0.4-1.6,0.7-2.6,0.7c-1.7,0-3.1-0.6-4.2-1.8c-1.1-1.2-1.7-2.8-1.7-4.9s0.6-3.8,1.7-5
		c1.2-1.3,2.7-1.9,4.6-1.9c1.6,0,3,0.4,4,1.3s1.6,1.9,1.7,3.1h-2.8V459.1z"/>
	<path d="M25.5,455h2.8v8c0,0.9,0.1,1.5,0.3,2c0.3,0.7,1,1.1,2.1,1.1s1.8-0.4,2.1-1.1c0.2-0.4,0.3-1.1,0.3-2v-8h2.8v8
		c0,1.4-0.2,2.4-0.6,3.2c-0.8,1.4-2.3,2.1-4.6,2.1s-3.8-0.7-4.6-2.1c-0.4-0.8-0.6-1.8-0.6-3.2C25.5,463,25.5,455,25.5,455z"/>
	<path d="M42.2,455h3.1l4.6,13H47l-0.9-2.7h-4.8l-0.9,2.7h-2.8L42.2,455z M42.1,463.1h3.3l-1.6-5.1L42.1,463.1z"/>
	<path d="M59.8,455.4c0.5,0.2,0.9,0.5,1.2,0.9c0.3,0.3,0.5,0.7,0.7,1.1s0.2,0.9,0.2,1.4c0,0.6-0.2,1.2-0.5,1.8s-0.8,1-1.5,1.3
		c0.6,0.2,1,0.6,1.3,1s0.4,1.1,0.4,2v0.9c0,0.6,0,1,0.1,1.2c0.1,0.3,0.2,0.6,0.5,0.7v0.3h-3c-0.1-0.3-0.1-0.5-0.2-0.7
		c-0.1-0.4-0.1-0.7-0.1-1.1V465c0-0.8-0.2-1.4-0.4-1.7s-0.8-0.4-1.5-0.4h-2.6v5.1h-2.6v-13H58C58.7,455,59.4,455.2,59.8,455.4z
		 M54.2,457.3v3.5h2.9c0.6,0,1-0.1,1.3-0.2c0.5-0.2,0.8-0.7,0.8-1.5s-0.2-1.3-0.7-1.6c-0.3-0.2-0.7-0.2-1.3-0.2L54.2,457.3
		L54.2,457.3z"/>
	<path d="M72.1,455.3c0.9,0.3,1.6,0.8,2.2,1.6c0.5,0.6,0.8,1.3,0.9,2.1c0.2,0.8,0.2,1.5,0.2,2.1c0,1.7-0.3,3.2-1,4.4
		c-0.9,1.6-2.4,2.4-4.3,2.4h-5.6v-13h5.6C70.9,455,71.6,455.1,72.1,455.3z M67.2,457.3v8.5h2.5c1.3,0,2.2-0.6,2.7-1.9
		c0.3-0.7,0.4-1.5,0.4-2.5c0-1.3-0.2-2.3-0.6-3s-1.2-1.1-2.5-1.1H67.2z"/>
	<path d="M80,468h-2.7v-13H80V468z"/>
	<path d="M86.2,455h3.1l4.6,13H91l-0.9-2.7h-4.8l-0.9,2.7h-2.8L86.2,455z M86.1,463.1h3.3l-1.6-5.1L86.1,463.1z"/>
	<path d="M95.5,455h2.8l5.1,9v-9h2.5v13h-2.7l-5.3-9.2v9.2h-2.5L95.5,455L95.5,455z"/>
</g>
<g>
	<path d="M220.8,455v2.3H217V468h-2.7v-10.7h-3.9V455H220.8z"/>
	<path d="M224.9,468h-2.7v-13h2.7V468z"/>
	<path d="M236,455h3.9v13h-2.5v-8.8c0-0.3,0-0.6,0-1.1s0-0.8,0-1.1l-2.4,11h-2.6l-2.4-10.9c0,0.2,0,0.6,0,1.1s0,0.8,0,1.1v8.8h-2.5
		v-13h3.9l2.4,10.2L236,455z"/>
	<path d="M252,457.3h-6.9v2.8h6.3v2.2h-6.3v3.3h7.2v2.3h-9.8v-13h9.5V457.3z"/>
</g>
<g>
	<path d="M389.3,455h9.2v2.3H392v3h5.7v2.2H392v5.4h-2.7V455z"/>
	<path d="M410.3,466.8c-1,1-2.4,1.5-4.2,1.5s-3.3-0.5-4.2-1.5c-1.3-1.2-2-3-2-5.3c0-2.4,0.7-4.2,2-5.3c1-1,2.4-1.5,4.2-1.5
		s3.3,0.5,4.2,1.5c1.3,1.2,2,3,2,5.3C412.2,463.8,411.6,465.6,410.3,466.8z M408.6,464.9c0.6-0.8,0.9-1.9,0.9-3.4s-0.3-2.6-0.9-3.4
		s-1.5-1.2-2.6-1.2s-1.9,0.4-2.6,1.2s-1,1.9-1,3.4s0.3,2.6,1,3.4s1.5,1.2,2.6,1.2S407.9,465.6,408.6,464.9z"/>
	<path d="M416.4,468h-3.1l4.2-6.6l-4-6.4h3.2l2.3,4.2l2.4-4.2h3.1l-4,6.2l4.2,6.7h-3.3l-2.5-4.4L416.4,468z"/>
</g>
<g>
	<path d="M570.6,455v2.3h-3.9V468H564v-10.7h-3.9V455H570.6z"/>
	<path d="M580.7,455h3.9v13h-2.5v-8.8c0-0.3,0-0.6,0-1.1s0-0.8,0-1l-2.5,10.9H577l-2.4-10.9c0,0.2,0,0.6,0,1s0,0.8,0,1.1v8.8h-2.5
		v-13h3.9l2.4,10.2L580.7,455z"/>
	<path d="M586.2,465.7l6.6-8.4h-6.5V455h9.8v2.2l-6.7,8.5h6.7v2.3h-10v-2.3H586.2z"/>
</g>
<path class="st26" d="M105.6,103.1H10.1c-3,0-5.4-2.4-5.4-5.4V8.1c0-3,2.4-5.4,5.4-5.4h95.5c3,0,5.4,2.4,5.4,5.4v89.7
	C111,100.7,108.6,103.1,105.6,103.1z"/>
<path class="st26" d="M279.2,103.1h-95.5c-3,0-5.4-2.4-5.4-5.4V8.1c0-3,2.4-5.4,5.4-5.4h95.5c3,0,5.4,2.4,5.4,5.4v89.7
	C284.6,100.7,282.2,103.1,279.2,103.1z"/>
<path class="st26" d="M452.8,103.1h-95.5c-3,0-5.4-2.4-5.4-5.4V8.1c0-3,2.4-5.4,5.4-5.4h95.5c3,0,5.4,2.4,5.4,5.4v89.7
	C458.2,100.7,455.7,103.1,452.8,103.1z"/>
<path class="st26" d="M105.6,271.4H10.1c-3,0-5.4-2.4-5.4-5.4v-89.7c0-3,2.4-5.4,5.4-5.4h95.5c3,0,5.4,2.4,5.4,5.4V266
	C111,269,108.6,271.4,105.6,271.4z"/>
<path class="st26" d="M279.2,271.4h-95.5c-3,0-5.4-2.4-5.4-5.4v-89.7c0-3,2.4-5.4,5.4-5.4h95.5c3,0,5.4,2.4,5.4,5.4V266
	C284.6,269,282.2,271.4,279.2,271.4z"/>
<path class="st26" d="M452.8,271.4h-95.5c-3,0-5.4-2.4-5.4-5.4v-89.7c0-3,2.4-5.4,5.4-5.4h95.5c3,0,5.4,2.4,5.4,5.4V266
	C458.2,269,455.7,271.4,452.8,271.4z"/>
<path class="st26" d="M626,103.1h-95.5c-3,0-5.4-2.4-5.4-5.4V8.1c0-3,2.4-5.4,5.4-5.4H626c3,0,5.4,2.4,5.4,5.4v89.7
	C631.3,100.7,628.9,103.1,626,103.1z"/>
<path class="st26" d="M626,271.4h-95.5c-3,0-5.4-2.4-5.4-5.4v-89.7c0-3,2.4-5.4,5.4-5.4H626c3,0,5.4,2.4,5.4,5.4V266
	C631.3,269,628.9,271.4,626,271.4z"/>
<path class="st26" d="M105.6,439.7H10.1c-3,0-5.4-2.4-5.4-5.4v-89.7c0-3,2.4-5.4,5.4-5.4h95.5c3,0,5.4,2.4,5.4,5.4v89.7
	C111,437.3,108.6,439.7,105.6,439.7z"/>
<path class="st26" d="M279.2,439.7h-95.5c-3,0-5.4-2.4-5.4-5.4v-89.7c0-3,2.4-5.4,5.4-5.4h95.5c3,0,5.4,2.4,5.4,5.4v89.7
	C284.6,437.3,282.2,439.7,279.2,439.7z"/>
<path class="st26" d="M452.8,439.7h-95.5c-3,0-5.4-2.4-5.4-5.4v-89.7c0-3,2.4-5.4,5.4-5.4h95.5c3,0,5.4,2.4,5.4,5.4v89.7
	C458.2,437.3,455.7,439.7,452.8,439.7z"/>
<path class="st26" d="M626,439.7h-95.5c-3,0-5.4-2.4-5.4-5.4v-89.7c0-3,2.4-5.4,5.4-5.4H626c3,0,5.4,2.4,5.4,5.4v89.7
	C631.3,437.3,628.9,439.7,626,439.7z"/>
<path class="st26" d="M800,104.1h-95.5c-3,0-5.4-2.4-5.4-5.4V9c0-3,2.4-5.4,5.4-5.4H800c3,0,5.4,2.4,5.4,5.4v89.7
	C805.4,101.7,803,104.1,800,104.1z"/>
<path class="st26" d="M800,272.4h-95.5c-3,0-5.4-2.4-5.4-5.4v-89.7c0-3,2.4-5.4,5.4-5.4H800c3,0,5.4,2.4,5.4,5.4V267
	C805.4,270,803,272.4,800,272.4z"/>
<path class="st26" d="M800,440.7h-95.5c-3,0-5.4-2.4-5.4-5.4v-89.7c0-3,2.4-5.4,5.4-5.4H800c3,0,5.4,2.4,5.4,5.4v89.7
	C805.4,438.3,803,440.7,800,440.7z"/>
<g>
	<path class="st27" d="M749.4,217.7c0.5,0,1-0.2,1.4-0.5c0.3-0.4,0.5-1,0.4-1.5v-6.6h3v6.6c0.1,1.3-0.4,2.5-1.3,3.4
		c-1,0.8-2.3,1.3-3.5,1.2c-1.3,0.1-2.6-0.3-3.5-1.2s-1.4-2.1-1.4-3.4v-6.6h3v6.6c0,0.5,0.1,1.1,0.5,1.5
		C748.3,217.5,748.8,217.8,749.4,217.7z"/>
	<path class="st27" d="M760.1,220.2c-0.9,0-1.7-0.2-2.5-0.5s-1.5-0.7-2.1-1.3l1.4-1.8c0.4,0.4,0.9,0.7,1.4,0.9
		c0.6,0.2,1.2,0.3,1.8,0.3c0.4,0,0.7-0.1,1-0.2c0.2-0.1,0.4-0.4,0.4-0.7s-0.2-0.6-0.4-0.7c-0.5-0.3-1-0.5-1.5-0.6l-0.7-0.2
		c-0.8-0.2-1.6-0.6-2.2-1.2c-0.5-0.5-0.8-1.3-0.8-2c0-0.6,0.2-1.2,0.6-1.8c0.4-0.5,0.9-0.9,1.5-1.2c0.7-0.3,1.5-0.4,2.2-0.4
		c0.8,0,1.6,0.2,2.4,0.5c0.7,0.3,1.4,0.7,2,1.2l-1.5,1.9c-0.4-0.3-0.9-0.6-1.4-0.9c-0.5-0.2-1-0.4-1.5-0.4c-0.3,0-0.7,0.1-1,0.2
		c-0.2,0.1-0.4,0.4-0.4,0.7s0.1,0.5,0.4,0.7c0.4,0.3,0.8,0.4,1.3,0.5l0.8,0.2c0.9,0.2,1.8,0.7,2.5,1.3c0.5,0.5,0.7,1.2,0.7,1.9
		c0,0.6-0.2,1.3-0.5,1.8c-0.4,0.5-0.9,0.9-1.5,1.2C761.7,220.1,760.9,220.2,760.1,220.2z"/>
	<path class="st27" d="M773.5,220l-0.7-2h-4.1l-0.7,2h-2.9l4-10.9h3.5l3.9,10.8L773.5,220L773.5,220z M769.4,215.7h2.6l-1.2-3.8
		L769.4,215.7z"/>
	<path class="st27" d="M747.7,234v-8.5h-3.2v-2.4h9.4v2.4h-3.2v8.5H747.7z"/>
	<path class="st27" d="M760.2,234.2c-1,0-2-0.2-2.9-0.7c-0.8-0.5-1.5-1.2-2-2c-0.5-0.9-0.8-1.9-0.7-2.9c0-0.8,0.1-1.5,0.4-2.3
		c0.3-0.7,0.7-1.3,1.2-1.8s1.1-0.9,1.8-1.2c1.5-0.6,3.1-0.6,4.5,0c0.7,0.3,1.3,0.7,1.8,1.2s0.9,1.1,1.2,1.8s0.5,1.5,0.5,2.3
		c0,1-0.2,2-0.7,2.9c-0.5,0.8-1.2,1.5-2,2C762.2,233.9,761.2,234.2,760.2,234.2z M760.2,231.7c0.5,0,1-0.1,1.4-0.4
		c0.4-0.3,0.7-0.7,0.9-1.1c0.2-0.5,0.4-1.1,0.3-1.7c0-0.6-0.1-1.1-0.3-1.7c-0.2-0.5-0.5-0.9-0.9-1.2c-0.8-0.5-1.9-0.5-2.7,0
		c-0.4,0.3-0.7,0.7-0.9,1.2s-0.4,1.1-0.3,1.7c0,0.6,0.1,1.1,0.3,1.7c0.2,0.4,0.5,0.8,0.9,1.1C759.2,231.6,759.7,231.7,760.2,231.7
		L760.2,231.7z"/>
	<path class="st27" d="M767.5,234v-10.9h4.3c1,0,2,0.2,2.9,0.7c0.8,0.5,1.5,1.1,1.9,1.9c0.9,1.8,0.9,3.9,0,5.7
		c-0.5,0.8-1.1,1.5-1.9,1.9c-0.9,0.5-1.9,0.7-2.9,0.7L767.5,234z M770.5,231.6h1.4c0.7,0,1.4-0.3,1.9-0.8c0.5-0.6,0.7-1.4,0.7-2.2
		s-0.2-1.6-0.7-2.2c-0.4-0.6-1.1-0.9-1.9-0.8h-1.4V231.6z"/>
	<path class="st27" d="M786.1,234l-0.7-2h-4.1l-0.7,2h-2.9l4-10.9h3.5l4,10.9H786.1z M782.1,229.7h2.6l-1.3-3.8L782.1,229.7z"/>
	<path class="st27" d="M794.9,230v3.9h-3V230l-3.9-7h3.4l2,4.4l2-4.3h3.4L794.9,230z"/>
	<circle class="st28" cx="723.4" cy="221.5" r="16.5"/>
</g>
<path class="st29" d="M745.5,422.2h-23.3v-64H757L745.5,422.2z M786.2,358.2h-23.4l-11.2,64h34.6L786.2,358.2L786.2,358.2z"/>
<g id="logo-cbs-news-vertical">
	<g>
		<path id="logo-part-eye-cbs" d="M743.6,39c0,4.4,0.4,7.3,1,9.1c0.2,0.5,0.4,0.9,0.6,1.2c0.1,0.1,0.1,0.2,0.2,0.3l0.1,0.1
			c0.7,0.7,2.2,1.3,3.5,1.4h0.1c3.3,0,5.6-3.5,7.3-8.9l0.3-0.9v10.4l-0.3-0.5c-0.6-1-0.9-1.3-1.5-1.3c-0.3,0-0.8,0.1-1.4,0.4
			c-0.2,0.1-0.3,0.2-0.5,0.2c-0.1,0.1-0.8,0.4-0.9,0.4c-0.8,0.4-1.8,0.6-2.8,0.7l0,0l0,0h-0.1c-5.7,0-10.5-4.9-10.5-12.6
			c0-6.6,5.8-12.6,10.5-12.6c1,0,2.1,0.3,2.9,0.7c0.2,0.1,0.8,0.4,0.9,0.4c0.2,0.1,0.4,0.2,0.5,0.2c0.6,0.3,1,0.4,1.4,0.4
			c0.7,0,1-0.3,1.4-1.3l0.3-0.7v10.7l-0.3-1c-1.4-5-3.9-8.9-7.2-8.9C745.7,26.8,743.6,30.8,743.6,39L743.6,39z M777.8,44.2
			c0,4.2-4.4,7-9,7h-10.9l-0.2-0.2v-0.2l0.2-0.2h2.7V27.3h-2.7l-0.2-0.2v-0.2l0.2-0.2h10.4c4.7,0,8.3,2.8,8.3,6c0,2.7-1.3,4.3-5,5.3
			C775,38.6,777.8,40.7,777.8,44.2L777.8,44.2z M768.7,50.7v0.2V50.7c3.1,0,4.4-1.5,4.4-6.2c0-4.5-1.4-6.2-4.2-6.3h-3.2v12.4h3V50.7
			z M769,37.7c2.2,0,3.1-1,3.1-5.1h0.2h-0.2c0-4.2-1.2-5.4-4-5.4h-2.5v10.4L769,37.7L769,37.7z M792.8,26.8L793,27v10l-0.3-1.1
			c-0.1-0.4-0.2-0.9-0.4-1.3c-0.3-1-0.7-1.9-1.1-2.9c-0.8-1.7-1.6-3-2.5-3.7c-2.8-2-6.4-0.5-6.4,3.6c0,1.9,1.3,3.3,3.6,4.3
			c0.6,0.2,1.2,0.5,2,0.7c0.5,0.1,0.9,0.3,1.4,0.4c0.2,0.1,0.9,0.3,1.1,0.3c0.5,0.2,1,0.4,1.5,0.6c2,1,3.1,2.8,3.1,5.7
			c0,4.7-4,8-7.5,8c-0.5,0-1.1-0.1-1.7-0.2c-0.6-0.1-1.3-0.3-2.1-0.6c-0.3-0.1-1.3-0.5-1.6-0.5c-0.5-0.2-0.8-0.2-1-0.2
			c-0.4,0-0.7,0.2-1,0.4c-0.2,0.1-0.3,0.2-0.4,0.4l-0.1,0.1h-0.3l-0.2-0.2v-9.2l0.2-0.2h0.3l0.2,0.2c0,0.2,0.1,0.6,0.2,1.1
			c0.2,1,0.6,2.2,1.3,3.6c1.3,2.9,3.8,4.7,6.1,4.7c2.6,0,4.5-1.6,4.5-4.7c0-1.8-1.3-3.1-3.7-4.1c-0.8-0.4-3.2-1.2-3.3-1.2
			s-0.8-0.3-1-0.4c-0.4-0.2-0.8-0.4-1.2-0.6c-2-1.2-3.2-3.1-3.2-6.2c0-4.5,3.6-7.5,6.7-7.5c0.4,0,0.8,0.1,1.2,0.2
			c0.5,0.1,0.9,0.3,1.6,0.6c1.6,0.7,1.7,0.7,2.1,0.7c0.6,0,1-0.2,1.2-0.4c0.1-0.1,0.1-0.2,0.1-0.4l0.2-0.2L792.8,26.8L792.8,26.8z"
			/>
		<path id="logo-part-eye-cbs_1_" class="st30" d="M724.6,26.6c6.8,0,12.3,5.5,12.3,12.3s-5.5,12.3-12.3,12.3s-12.3-5.5-12.3-12.3
			S717.8,26.6,724.6,26.6L724.6,26.6z M724.6,46.1c5.1,0,9.2-3.3,11.3-7.3c-2.1-4-6.2-7.1-11.3-7.1c-5,0-9.1,3.2-11.3,7.1
			C715.5,42.8,719.6,46.1,724.6,46.1z M724.6,44.9c-3.3,0-6.1-2.7-6.1-6.1s2.7-6.1,6.1-6.1c3.3,0,6.1,2.7,6.1,6.1
			C730.7,42.2,728,44.9,724.6,44.9z"/>
	</g>
	<g transform="translate(0, 34)">
		<path id="logo-part-news" d="M775.6,21.4l-0.2-0.2V21l0.2-0.2h5.7l0.2,0.2v0.2l-0.2,0.2h-2.6l-7.6,24.8l-0.2,0.1h-0.5l-0.2-0.1
			l-4.9-16.3l-5,16.3l-0.2,0.1h-0.5l-0.2-0.1L752,21.4h-1.7v5.4l-0.2,0.2h-0.5l-0.2-0.1c-0.1-0.3-0.1-0.6-0.2-0.8
			c-0.2-0.7-0.5-1.3-0.9-1.9c-0.2-0.2-0.3-0.5-0.5-0.7c-0.7-0.8-2-1.6-3.2-2h-5.1v10.4c0.4,0,0.8,0,1.1,0h0.5c1.1,0,2.8-1,3.2-2.2
			c0.3-1,0.6-1.9,0.9-2.9l0.2-0.1h0.5l0.2,0.2v10.6l-0.2,0.2h-0.6l-0.2-0.1c0-0.1-0.1-0.3-0.2-0.6c-0.1-0.5-0.3-0.9-0.4-1.4
			c-0.3-0.8-0.6-1.5-0.9-1.8c-0.8-0.8-1.6-1.2-2.6-1.2h-1.6v12.3h5.6c1.1-0.4,2.2-1,3.4-2.4c0.4-0.5,0.8-1.1,1.2-1.9
			c0.3-0.7,0.5-1.4,0.7-2.1c0.1-0.4,0.2-0.8,0.2-1l0.2-0.1h0.5l0.2,0.2v7.7l-0.2,0.2h-19l-0.2-0.2v-0.2l0.2-0.2h2.6V21.4h-4.7v23.8
			l-0.2,0.2H729l-0.1-0.1l-12.9-22v21.5h2.6l0.2,0.2v0.2l-0.2,0.2h-5.8l-0.2-0.2V45l0.2-0.2h2.6V21.4h-2.6l-0.2-0.2V21l0.2-0.2h7.3
			l0.1,0.1l9.5,15.7V21.4h-2.6l-0.2-0.2V21l0.2-0.2h32.5l0.2,0.2v0.2l-0.2,0.2h-2.4l5,17.1l2.9-9.5l-2.3-7.6h-2.4l-0.2-0.2V21
			l0.2-0.2h10l0.2,0.2v0.2l-0.2,0.2h-2.5l5.1,17.1l5.2-17.1C778.1,21.4,775.6,21.4,775.6,21.4z M782.3,25.5c0,1.9,1.3,3.3,3.6,4.3
			c0.6,0.3,1.2,0.5,2,0.7c-0.1,0,1.2,0.3,1.4,0.4s0.9,0.3,1.1,0.3c0.5,0.2,1,0.4,1.5,0.6c2,1,3.1,2.8,3.1,5.7c0,4.7-4,8.1-7.5,8.1
			c-0.5,0-1.1-0.1-1.7-0.2c-0.6-0.1-1.3-0.3-2.1-0.6c-0.3-0.1-1.3-0.5-1.6-0.5c-0.5-0.2-0.8-0.2-1-0.2c-0.3,0-0.7,0.2-1,0.4
			c-0.2,0.1-0.3,0.2-0.4,0.4l-0.1,0.1h-0.3l-0.2-0.2v-9.2l0.2-0.2h0.3l0.2,0.2c0,0.2,0.1,0.6,0.2,1.1c0.2,1,0.6,2.2,1.3,3.6
			c1.3,2.9,3.7,4.7,6,4.7c2.6,0,4.5-1.6,4.5-4.7c0-1.8-1.3-3.1-3.7-4.1c-0.8-0.4-3.2-1.2-3.3-1.2s-0.8-0.3-1-0.4
			c-0.4-0.2-0.8-0.4-1.2-0.6c-2-1.2-3.2-3.1-3.2-6.2c0-4.5,3.6-7.5,6.6-7.5c0.8,0,1.5,0.2,2.6,0.5c1.4,0.5,1.5,0.5,2,0.5
			c0.4,0,0.9-0.2,1.3-0.4c0.2-0.2,0.4-0.3,0.5-0.4l0.1-0.1h0.3l0.2,0.2v9l-0.2,0.2h-0.3l-0.2-0.1c-0.1-2.3-1.8-6.5-3.7-7.8
			C786.1,20.1,782.3,21.9,782.3,25.5L782.3,25.5z"/>
	</g>
</g>
<g>
	<path d="M736.1,121.6c1-1.1,2.4-1.6,4-1.6c2.2,0,3.7,0.7,4.7,2.1c0.6,0.8,0.8,1.6,0.9,2.4H743c-0.2-0.6-0.4-1.1-0.7-1.4
		c-0.5-0.6-1.2-0.8-2.1-0.8c-1,0-1.7,0.4-2.3,1.2s-0.8,1.9-0.8,3.4s0.3,2.5,0.9,3.3c0.6,0.7,1.3,1.1,2.2,1.1s1.6-0.3,2.1-0.9
		c0.3-0.3,0.5-0.8,0.7-1.5h2.7c-0.2,1.4-0.8,2.6-1.8,3.4c-1,0.9-2.2,1.3-3.7,1.3c-1.8,0-3.3-0.6-4.3-1.8c-1.1-1.2-1.6-2.8-1.6-4.9
		C734.3,124.5,734.9,122.8,736.1,121.6z"/>
	<path d="M757.6,121.6c0.4,0.6,0.6,1.2,0.6,2s-0.2,1.4-0.6,1.9c-0.2,0.3-0.6,0.5-1,0.7c0.7,0.2,1.2,0.6,1.5,1.1s0.5,1.2,0.5,1.9
		c0,0.8-0.2,1.5-0.6,2.1c-0.2,0.4-0.5,0.7-0.9,1s-0.9,0.5-1.5,0.7s-1.2,0.2-1.8,0.2H748v-13h6.3
		C755.8,120.2,756.9,120.7,757.6,121.6z M750.5,122.4v2.9h3.1c0.6,0,1-0.1,1.4-0.3s0.5-0.6,0.5-1.1c0-0.6-0.2-1-0.7-1.2
		c-0.4-0.1-0.9-0.2-1.5-0.2h-2.8V122.4z M750.5,127.4v3.5h3.1c0.6,0,1-0.1,1.3-0.2c0.6-0.3,0.9-0.8,0.9-1.6c0-0.7-0.3-1.1-0.8-1.4
		c-0.3-0.1-0.7-0.2-1.3-0.2L750.5,127.4L750.5,127.4z"/>
	<path d="M762.9,129.2c0.1,0.6,0.2,1,0.5,1.3c0.4,0.5,1.2,0.8,2.3,0.8c0.7,0,1.2-0.1,1.6-0.2c0.8-0.3,1.2-0.8,1.2-1.5
		c0-0.4-0.2-0.8-0.6-1c-0.4-0.2-1-0.4-1.8-0.6l-1.4-0.3c-1.4-0.3-2.3-0.6-2.8-1c-0.9-0.6-1.3-1.5-1.3-2.8c0-1.2,0.4-2.1,1.3-2.9
		s2.1-1.2,3.8-1.2c1.4,0,2.6,0.4,3.5,1.1c1,0.7,1.5,1.8,1.5,3.2H768c0-0.8-0.4-1.3-1-1.7c-0.4-0.2-1-0.3-1.6-0.3
		c-0.7,0-1.3,0.1-1.7,0.4s-0.6,0.7-0.6,1.2s0.2,0.8,0.6,1c0.3,0.2,0.8,0.3,1.7,0.5l2.3,0.5c1,0.2,1.7,0.5,2.2,0.9
		c0.8,0.6,1.2,1.5,1.2,2.6c0,1.2-0.5,2.2-1.4,2.9s-2.2,1.2-3.9,1.2s-3-0.4-4-1.2s-1.5-1.8-1.5-3.2h2.6V129.2z"/>
</g>
<g>
	<path d="M702.6,288.1h2.8v8c0,0.9,0.1,1.5,0.3,2c0.3,0.7,1,1.1,2.1,1.1s1.8-0.4,2.1-1.1c0.2-0.4,0.3-1.1,0.3-2v-8h2.8v8
		c0,1.4-0.2,2.4-0.6,3.2c-0.8,1.4-2.3,2.1-4.6,2.1s-3.8-0.7-4.6-2.1c-0.4-0.8-0.6-1.8-0.6-3.2V288.1z"/>
	<path d="M717.5,297c0.1,0.6,0.2,1,0.5,1.3c0.4,0.5,1.2,0.8,2.3,0.8c0.7,0,1.2-0.1,1.6-0.2c0.8-0.3,1.2-0.8,1.2-1.5
		c0-0.4-0.2-0.8-0.6-1c-0.4-0.2-1-0.4-1.8-0.6l-1.4-0.3c-1.4-0.3-2.3-0.6-2.8-1c-0.9-0.6-1.3-1.5-1.3-2.8c0-1.2,0.4-2.1,1.3-2.9
		s2.1-1.2,3.8-1.2c1.4,0,2.6,0.4,3.5,1.1c1,0.7,1.5,1.8,1.5,3.2h-2.6c0-0.8-0.4-1.3-1-1.7c-0.4-0.2-1-0.3-1.6-0.3
		c-0.7,0-1.3,0.1-1.7,0.4s-0.6,0.7-0.6,1.2s0.2,0.8,0.6,1c0.3,0.2,0.8,0.3,1.7,0.5l2.3,0.5c1,0.2,1.7,0.5,2.2,0.9
		c0.8,0.6,1.2,1.5,1.2,2.6c0,1.2-0.5,2.2-1.4,2.9s-2.2,1.2-3.9,1.2s-3-0.4-4-1.2s-1.5-1.8-1.5-3.2h2.5V297z"/>
	<path d="M731.3,288.1h3.1l4.6,13h-3l-0.9-2.7h-4.8l-0.9,2.7h-2.8L731.3,288.1z M731.1,296.1h3.3l-1.6-5.1L731.1,296.1z"/>
	<path d="M754.4,288.1v2.3h-3.9V301h-2.7v-10.7h-3.9V288h10.5V288.1z"/>
	<path d="M765.6,299.9c-1,1-2.4,1.5-4.2,1.5s-3.3-0.5-4.2-1.5c-1.3-1.2-2-3-2-5.3c0-2.4,0.7-4.2,2-5.3c1-1,2.4-1.5,4.2-1.5
		s3.3,0.5,4.2,1.5c1.3,1.2,2,3,2,5.3S766.9,298.6,765.6,299.9z M763.9,297.9c0.6-0.8,0.9-1.9,0.9-3.4s-0.3-2.6-0.9-3.4
		s-1.5-1.2-2.6-1.2s-1.9,0.4-2.6,1.2s-1,1.9-1,3.4s0.3,2.6,1,3.4s1.5,1.2,2.6,1.2S763.3,298.7,763.9,297.9z"/>
	<path d="M777.2,288.4c0.9,0.3,1.6,0.8,2.2,1.6c0.5,0.6,0.8,1.3,0.9,2.1s0.2,1.5,0.2,2.1c0,1.7-0.3,3.2-1,4.4
		c-0.9,1.6-2.4,2.4-4.3,2.4h-5.6v-13h5.6C776,288.1,776.7,288.2,777.2,288.4z M772.2,290.3v8.5h2.5c1.3,0,2.2-0.6,2.7-1.9
		c0.3-0.7,0.4-1.5,0.4-2.5c0-1.3-0.2-2.3-0.6-3c-0.4-0.7-1.2-1.1-2.5-1.1H772.2z"/>
	<path d="M786.3,288.1h3.1l4.6,13h-3l-0.9-2.7h-4.8l-0.9,2.7h-2.8L786.3,288.1z M786.1,296.1h3.3l-1.6-5.1L786.1,296.1z"/>
	<path d="M801.4,288.1h3.1l-4.3,8.1v4.9h-2.7v-4.9l-4.5-8.1h3.2l2.7,5.6L801.4,288.1z"/>
</g>
<g>
	<path d="M705.8,467.8v-13h2.7v4.9h5v-4.9h2.7v13h-2.7V462h-5v5.8H705.8z"/>
	<path d="M718.8,454.8h2.8v8c0,0.9,0.1,1.5,0.3,1.9c0.3,0.7,1,1.1,2.1,1.1s1.8-0.4,2.1-1.1c0.2-0.4,0.3-1.1,0.3-1.9v-8h2.8v8
		c0,1.4-0.2,2.4-0.6,3.2c-0.8,1.4-2.3,2.1-4.6,2.1s-3.8-0.7-4.6-2.1c-0.4-0.8-0.6-1.8-0.6-3.2V454.8z"/>
	<path d="M731.8,454.9h9.2v2.3h-6.5v3h5.7v2.2h-5.7v5.4h-2.7V454.9z"/>
	<path d="M742.8,454.9h9.2v2.3h-6.5v3h5.7v2.2h-5.7v5.4h-2.7V454.9z"/>
	<path d="M762.5,462.2c-0.8,0.6-1.8,0.9-3.2,0.9h-2.7v4.7h-2.7v-13h5.6c1.3,0,2.3,0.3,3.1,1s1.1,1.7,1.1,3.1
		C763.7,460.5,763.3,461.6,762.5,462.2z M760.5,457.5c-0.3-0.3-0.8-0.4-1.4-0.4h-2.4v3.8h2.4c0.6,0,1.1-0.2,1.4-0.5s0.5-0.8,0.5-1.5
		S760.8,457.8,760.5,457.5z"/>
	<path d="M775.8,466.7c-1,1-2.4,1.5-4.2,1.5s-3.3-0.5-4.2-1.5c-1.3-1.2-2-3-2-5.3c0-2.4,0.7-4.2,2-5.3c1-1,2.4-1.5,4.2-1.5
		s3.3,0.5,4.2,1.5c1.3,1.2,2,3,2,5.3C777.8,463.6,777.1,465.4,775.8,466.7z M774.1,464.7c0.6-0.8,0.9-1.9,0.9-3.4s-0.3-2.6-0.9-3.4
		s-1.5-1.2-2.6-1.2s-1.9,0.4-2.6,1.2s-1,1.9-1,3.4s0.3,2.6,1,3.4s1.5,1.2,2.6,1.2S773.5,465.5,774.1,464.7z"/>
	<path d="M781.8,463.8c0.1,0.6,0.2,1,0.5,1.3c0.4,0.5,1.2,0.8,2.3,0.8c0.7,0,1.2-0.1,1.6-0.2c0.8-0.3,1.2-0.8,1.2-1.5
		c0-0.4-0.2-0.8-0.6-1c-0.4-0.2-1-0.4-1.8-0.6l-1.4-0.3c-1.4-0.3-2.3-0.6-2.8-1c-0.9-0.6-1.3-1.5-1.3-2.8c0-1.2,0.4-2.1,1.3-2.9
		s2.1-1.2,3.8-1.2c1.4,0,2.6,0.4,3.5,1.1c1,0.7,1.5,1.8,1.5,3.2H787c0-0.8-0.4-1.3-1-1.7c-0.4-0.2-1-0.3-1.6-0.3
		c-0.7,0-1.3,0.1-1.7,0.4s-0.6,0.7-0.6,1.2s0.2,0.8,0.6,1c0.3,0.2,0.8,0.3,1.7,0.5l2.3,0.5c1,0.2,1.7,0.5,2.2,0.9
		c0.8,0.6,1.2,1.5,1.2,2.6c0,1.2-0.5,2.2-1.4,2.9s-2.2,1.2-3.9,1.2s-3-0.4-4-1.2s-1.5-1.8-1.5-3.2h2.5V463.8z"/>
	<path d="M801.3,454.8v2.3h-3.9v10.7h-2.7v-10.7h-3.9v-2.3H801.3z"/>
</g>
</svg>
